%TF.GenerationSoftware,KiCad,Pcbnew,(5.1.0)-1*%
%TF.CreationDate,2021-02-23T00:32:09+09:00*%
%TF.ProjectId,20200129 thinkeyboardver0,32303230-3031-4323-9920-7468696e6b65,rev?*%
%TF.SameCoordinates,Original*%
%TF.FileFunction,Soldermask,Top*%
%TF.FilePolarity,Negative*%
%FSLAX46Y46*%
G04 Gerber Fmt 4.6, Leading zero omitted, Abs format (unit mm)*
G04 Created by KiCad (PCBNEW (5.1.0)-1) date 2021-02-23 00:32:09*
%MOMM*%
%LPD*%
G04 APERTURE LIST*
%ADD10C,0.200000*%
%ADD11C,1.600000*%
%ADD12C,1.300000*%
%ADD13C,1.400000*%
%ADD14O,5.100000X4.100000*%
%ADD15O,2.000000X4.100000*%
%ADD16O,0.300000X4.100000*%
%ADD17O,5.100000X0.300000*%
%ADD18C,2.000000*%
%ADD19C,1.200000*%
%ADD20O,2.500000X1.700000*%
%ADD21C,1.524000*%
%ADD22C,4.100000*%
%ADD23C,4.100000*%
%ADD24C,2.000000*%
%ADD25C,0.300000*%
%ADD26C,0.300000*%
%ADD27R,0.950000X1.300000*%
%ADD28C,0.950000*%
%ADD29C,0.100000*%
G04 APERTURE END LIST*
D10*
X165714285Y-66102380D02*
X165238095Y-66102380D01*
X165238095Y-65102380D01*
X166476190Y-65435714D02*
X166476190Y-66102380D01*
X166047619Y-65435714D02*
X166047619Y-65959523D01*
X166095238Y-66054761D01*
X166190476Y-66102380D01*
X166333333Y-66102380D01*
X166428571Y-66054761D01*
X166476190Y-66007142D01*
X166952380Y-65435714D02*
X166952380Y-66102380D01*
X166952380Y-65530952D02*
X167000000Y-65483333D01*
X167095238Y-65435714D01*
X167238095Y-65435714D01*
X167333333Y-65483333D01*
X167380952Y-65578571D01*
X167380952Y-66102380D01*
X168285714Y-66054761D02*
X168190476Y-66102380D01*
X168000000Y-66102380D01*
X167904761Y-66054761D01*
X167857142Y-66007142D01*
X167809523Y-65911904D01*
X167809523Y-65626190D01*
X167857142Y-65530952D01*
X167904761Y-65483333D01*
X168000000Y-65435714D01*
X168190476Y-65435714D01*
X168285714Y-65483333D01*
X168714285Y-66102380D02*
X168714285Y-65102380D01*
X169142857Y-66102380D02*
X169142857Y-65578571D01*
X169095238Y-65483333D01*
X169000000Y-65435714D01*
X168857142Y-65435714D01*
X168761904Y-65483333D01*
X168714285Y-65530952D01*
X169952380Y-65578571D02*
X170095238Y-65626190D01*
X170142857Y-65673809D01*
X170190476Y-65769047D01*
X170190476Y-65911904D01*
X170142857Y-66007142D01*
X170095238Y-66054761D01*
X170000000Y-66102380D01*
X169619047Y-66102380D01*
X169619047Y-65102380D01*
X169952380Y-65102380D01*
X170047619Y-65150000D01*
X170095238Y-65197619D01*
X170142857Y-65292857D01*
X170142857Y-65388095D01*
X170095238Y-65483333D01*
X170047619Y-65530952D01*
X169952380Y-65578571D01*
X169619047Y-65578571D01*
X170761904Y-66102380D02*
X170666666Y-66054761D01*
X170619047Y-66007142D01*
X170571428Y-65911904D01*
X170571428Y-65626190D01*
X170619047Y-65530952D01*
X170666666Y-65483333D01*
X170761904Y-65435714D01*
X170904761Y-65435714D01*
X171000000Y-65483333D01*
X171047619Y-65530952D01*
X171095238Y-65626190D01*
X171095238Y-65911904D01*
X171047619Y-66007142D01*
X171000000Y-66054761D01*
X170904761Y-66102380D01*
X170761904Y-66102380D01*
X171428571Y-66102380D02*
X171952380Y-65435714D01*
X171428571Y-65435714D02*
X171952380Y-66102380D01*
X173000000Y-65435714D02*
X173238095Y-66102380D01*
X173476190Y-65435714D01*
X173761904Y-65102380D02*
X174380952Y-65102380D01*
X174047619Y-65483333D01*
X174190476Y-65483333D01*
X174285714Y-65530952D01*
X174333333Y-65578571D01*
X174380952Y-65673809D01*
X174380952Y-65911904D01*
X174333333Y-66007142D01*
X174285714Y-66054761D01*
X174190476Y-66102380D01*
X173904761Y-66102380D01*
X173809523Y-66054761D01*
X173761904Y-66007142D01*
X174809523Y-66007142D02*
X174857142Y-66054761D01*
X174809523Y-66102380D01*
X174761904Y-66054761D01*
X174809523Y-66007142D01*
X174809523Y-66102380D01*
X175476190Y-65102380D02*
X175571428Y-65102380D01*
X175666666Y-65150000D01*
X175714285Y-65197619D01*
X175761904Y-65292857D01*
X175809523Y-65483333D01*
X175809523Y-65721428D01*
X175761904Y-65911904D01*
X175714285Y-66007142D01*
X175666666Y-66054761D01*
X175571428Y-66102380D01*
X175476190Y-66102380D01*
X175380952Y-66054761D01*
X175333333Y-66007142D01*
X175285714Y-65911904D01*
X175238095Y-65721428D01*
X175238095Y-65483333D01*
X175285714Y-65292857D01*
X175333333Y-65197619D01*
X175380952Y-65150000D01*
X175476190Y-65102380D01*
X164476190Y-67802380D02*
X164476190Y-66802380D01*
X164714285Y-66802380D01*
X164857142Y-66850000D01*
X164952380Y-66945238D01*
X165000000Y-67040476D01*
X165047619Y-67230952D01*
X165047619Y-67373809D01*
X165000000Y-67564285D01*
X164952380Y-67659523D01*
X164857142Y-67754761D01*
X164714285Y-67802380D01*
X164476190Y-67802380D01*
X165857142Y-67754761D02*
X165761904Y-67802380D01*
X165571428Y-67802380D01*
X165476190Y-67754761D01*
X165428571Y-67659523D01*
X165428571Y-67278571D01*
X165476190Y-67183333D01*
X165571428Y-67135714D01*
X165761904Y-67135714D01*
X165857142Y-67183333D01*
X165904761Y-67278571D01*
X165904761Y-67373809D01*
X165428571Y-67469047D01*
X166285714Y-67754761D02*
X166380952Y-67802380D01*
X166571428Y-67802380D01*
X166666666Y-67754761D01*
X166714285Y-67659523D01*
X166714285Y-67611904D01*
X166666666Y-67516666D01*
X166571428Y-67469047D01*
X166428571Y-67469047D01*
X166333333Y-67421428D01*
X166285714Y-67326190D01*
X166285714Y-67278571D01*
X166333333Y-67183333D01*
X166428571Y-67135714D01*
X166571428Y-67135714D01*
X166666666Y-67183333D01*
X167142857Y-67802380D02*
X167142857Y-67135714D01*
X167142857Y-66802380D02*
X167095238Y-66850000D01*
X167142857Y-66897619D01*
X167190476Y-66850000D01*
X167142857Y-66802380D01*
X167142857Y-66897619D01*
X168047619Y-67135714D02*
X168047619Y-67945238D01*
X168000000Y-68040476D01*
X167952380Y-68088095D01*
X167857142Y-68135714D01*
X167714285Y-68135714D01*
X167619047Y-68088095D01*
X168047619Y-67754761D02*
X167952380Y-67802380D01*
X167761904Y-67802380D01*
X167666666Y-67754761D01*
X167619047Y-67707142D01*
X167571428Y-67611904D01*
X167571428Y-67326190D01*
X167619047Y-67230952D01*
X167666666Y-67183333D01*
X167761904Y-67135714D01*
X167952380Y-67135714D01*
X168047619Y-67183333D01*
X168523809Y-67135714D02*
X168523809Y-67802380D01*
X168523809Y-67230952D02*
X168571428Y-67183333D01*
X168666666Y-67135714D01*
X168809523Y-67135714D01*
X168904761Y-67183333D01*
X168952380Y-67278571D01*
X168952380Y-67802380D01*
X169809523Y-67754761D02*
X169714285Y-67802380D01*
X169523809Y-67802380D01*
X169428571Y-67754761D01*
X169380952Y-67659523D01*
X169380952Y-67278571D01*
X169428571Y-67183333D01*
X169523809Y-67135714D01*
X169714285Y-67135714D01*
X169809523Y-67183333D01*
X169857142Y-67278571D01*
X169857142Y-67373809D01*
X169380952Y-67469047D01*
X170714285Y-67802380D02*
X170714285Y-66802380D01*
X170714285Y-67754761D02*
X170619047Y-67802380D01*
X170428571Y-67802380D01*
X170333333Y-67754761D01*
X170285714Y-67707142D01*
X170238095Y-67611904D01*
X170238095Y-67326190D01*
X170285714Y-67230952D01*
X170333333Y-67183333D01*
X170428571Y-67135714D01*
X170619047Y-67135714D01*
X170714285Y-67183333D01*
X171952380Y-67802380D02*
X171952380Y-66802380D01*
X171952380Y-67183333D02*
X172047619Y-67135714D01*
X172238095Y-67135714D01*
X172333333Y-67183333D01*
X172380952Y-67230952D01*
X172428571Y-67326190D01*
X172428571Y-67611904D01*
X172380952Y-67707142D01*
X172333333Y-67754761D01*
X172238095Y-67802380D01*
X172047619Y-67802380D01*
X171952380Y-67754761D01*
X172761904Y-67135714D02*
X173000000Y-67802380D01*
X173238095Y-67135714D02*
X173000000Y-67802380D01*
X172904761Y-68040476D01*
X172857142Y-68088095D01*
X172761904Y-68135714D01*
X174523809Y-67802380D02*
X174428571Y-67754761D01*
X174380952Y-67659523D01*
X174380952Y-66802380D01*
X174904761Y-67802380D02*
X174904761Y-67135714D01*
X174904761Y-66802380D02*
X174857142Y-66850000D01*
X174904761Y-66897619D01*
X174952380Y-66850000D01*
X174904761Y-66802380D01*
X174904761Y-66897619D01*
X175285714Y-67802380D02*
X175809523Y-67135714D01*
X175285714Y-67135714D02*
X175809523Y-67802380D01*
X176142857Y-67754761D02*
X176238095Y-67802380D01*
X176428571Y-67802380D01*
X176523809Y-67754761D01*
X176571428Y-67659523D01*
X176571428Y-67611904D01*
X176523809Y-67516666D01*
X176428571Y-67469047D01*
X176285714Y-67469047D01*
X176190476Y-67421428D01*
X176142857Y-67326190D01*
X176142857Y-67278571D01*
X176190476Y-67183333D01*
X176285714Y-67135714D01*
X176428571Y-67135714D01*
X176523809Y-67183333D01*
D11*
%TO.C,SW14*%
X145199992Y-91999836D03*
D12*
X143099992Y-89399836D03*
X154099992Y-100399836D03*
D13*
X145199992Y-96899836D03*
D12*
X143100000Y-100400000D03*
X154100000Y-89400000D03*
D13*
X152000000Y-96900000D03*
D11*
X152000000Y-92000000D03*
D14*
X148600000Y-95800000D03*
D15*
X150150000Y-95800000D03*
X147050000Y-95800000D03*
D16*
X151000000Y-95800000D03*
X146200000Y-95800000D03*
D17*
X148600000Y-97700000D03*
X148600000Y-93900000D03*
%TD*%
D18*
%TO.C,SW23*%
X184000000Y-98750000D03*
X184000000Y-105250000D03*
%TD*%
D19*
%TO.C,J1*%
X190500000Y-101250000D03*
X197500000Y-101250000D03*
D20*
X188700000Y-99150000D03*
X187200000Y-103350000D03*
X195700000Y-99150000D03*
X192700000Y-99150000D03*
D19*
X197500000Y-103000000D03*
X190500000Y-103000000D03*
D20*
X195700000Y-105100000D03*
X192700000Y-105100000D03*
X188700000Y-105100000D03*
X187200000Y-100900000D03*
%TD*%
D11*
%TO.C,SW1*%
X88199992Y-69999836D03*
D12*
X86099992Y-67399836D03*
X97099992Y-78399836D03*
D13*
X88199992Y-74899836D03*
D12*
X86100000Y-78400000D03*
X97100000Y-67400000D03*
D13*
X95000000Y-74900000D03*
D11*
X95000000Y-70000000D03*
D14*
X91600000Y-73800000D03*
D15*
X93150000Y-73800000D03*
X90050000Y-73800000D03*
D16*
X94000000Y-73800000D03*
X89200000Y-73800000D03*
D17*
X91600000Y-75700000D03*
X91600000Y-71900000D03*
%TD*%
%TO.C,SW2*%
X91600000Y-88900000D03*
X91600000Y-92700000D03*
D16*
X89200000Y-90800000D03*
X94000000Y-90800000D03*
D15*
X90050000Y-90800000D03*
X93150000Y-90800000D03*
D14*
X91600000Y-90800000D03*
D11*
X95000000Y-87000000D03*
D13*
X95000000Y-91900000D03*
D12*
X97100000Y-84400000D03*
X86100000Y-95400000D03*
D13*
X88199992Y-91899836D03*
D12*
X97099992Y-95399836D03*
X86099992Y-84399836D03*
D11*
X88199992Y-86999836D03*
%TD*%
%TO.C,SW3*%
X88199992Y-103999836D03*
D12*
X86099992Y-101399836D03*
X97099992Y-112399836D03*
D13*
X88199992Y-108899836D03*
D12*
X86100000Y-112400000D03*
X97100000Y-101400000D03*
D13*
X95000000Y-108900000D03*
D11*
X95000000Y-104000000D03*
D14*
X91600000Y-107800000D03*
D15*
X93150000Y-107800000D03*
X90050000Y-107800000D03*
D16*
X94000000Y-107800000D03*
X89200000Y-107800000D03*
D17*
X91600000Y-109700000D03*
X91600000Y-105900000D03*
%TD*%
%TO.C,SW4*%
X91600000Y-122900164D03*
X91600000Y-126700164D03*
D16*
X89200000Y-124800164D03*
X94000000Y-124800164D03*
D15*
X90050000Y-124800164D03*
X93150000Y-124800164D03*
D14*
X91600000Y-124800164D03*
D11*
X95000000Y-121000164D03*
D13*
X95000000Y-125900164D03*
D12*
X97100000Y-118400164D03*
X86100000Y-129400164D03*
D13*
X88199992Y-125900000D03*
D12*
X97099992Y-129400000D03*
X86099992Y-118400000D03*
D11*
X88199992Y-121000000D03*
%TD*%
%TO.C,SW5*%
X107199992Y-72999836D03*
D12*
X105099992Y-70399836D03*
X116099992Y-81399836D03*
D13*
X107199992Y-77899836D03*
D12*
X105100000Y-81400000D03*
X116100000Y-70400000D03*
D13*
X114000000Y-77900000D03*
D11*
X114000000Y-73000000D03*
D14*
X110600000Y-76800000D03*
D15*
X112150000Y-76800000D03*
X109050000Y-76800000D03*
D16*
X113000000Y-76800000D03*
X108200000Y-76800000D03*
D17*
X110600000Y-78700000D03*
X110600000Y-74900000D03*
%TD*%
%TO.C,SW6*%
X110600000Y-91900000D03*
X110600000Y-95700000D03*
D16*
X108200000Y-93800000D03*
X113000000Y-93800000D03*
D15*
X109050000Y-93800000D03*
X112150000Y-93800000D03*
D14*
X110600000Y-93800000D03*
D11*
X114000000Y-90000000D03*
D13*
X114000000Y-94900000D03*
D12*
X116100000Y-87400000D03*
X105100000Y-98400000D03*
D13*
X107199992Y-94899836D03*
D12*
X116099992Y-98399836D03*
X105099992Y-87399836D03*
D11*
X107199992Y-89999836D03*
%TD*%
%TO.C,SW7*%
X107199992Y-106999836D03*
D12*
X105099992Y-104399836D03*
X116099992Y-115399836D03*
D13*
X107199992Y-111899836D03*
D12*
X105100000Y-115400000D03*
X116100000Y-104400000D03*
D13*
X114000000Y-111900000D03*
D11*
X114000000Y-107000000D03*
D14*
X110600000Y-110800000D03*
D15*
X112150000Y-110800000D03*
X109050000Y-110800000D03*
D16*
X113000000Y-110800000D03*
X108200000Y-110800000D03*
D17*
X110600000Y-112700000D03*
X110600000Y-108900000D03*
%TD*%
%TO.C,SW8*%
X110600000Y-125900000D03*
X110600000Y-129700000D03*
D16*
X108200000Y-127800000D03*
X113000000Y-127800000D03*
D15*
X109050000Y-127800000D03*
X112150000Y-127800000D03*
D14*
X110600000Y-127800000D03*
D11*
X114000000Y-124000000D03*
D13*
X114000000Y-128900000D03*
D12*
X116100000Y-121400000D03*
X105100000Y-132400000D03*
D13*
X107199992Y-128899836D03*
D12*
X116099992Y-132399836D03*
X105099992Y-121399836D03*
D11*
X107199992Y-123999836D03*
%TD*%
%TO.C,SW9*%
X126199992Y-67999836D03*
D12*
X124099992Y-65399836D03*
X135099992Y-76399836D03*
D13*
X126199992Y-72899836D03*
D12*
X124100000Y-76400000D03*
X135100000Y-65400000D03*
D13*
X133000000Y-72900000D03*
D11*
X133000000Y-68000000D03*
D14*
X129600000Y-71800000D03*
D15*
X131150000Y-71800000D03*
X128050000Y-71800000D03*
D16*
X132000000Y-71800000D03*
X127200000Y-71800000D03*
D17*
X129600000Y-73700000D03*
X129600000Y-69900000D03*
%TD*%
%TO.C,SW10*%
X129600000Y-86900000D03*
X129600000Y-90700000D03*
D16*
X127200000Y-88800000D03*
X132000000Y-88800000D03*
D15*
X128050000Y-88800000D03*
X131150000Y-88800000D03*
D14*
X129600000Y-88800000D03*
D11*
X133000000Y-85000000D03*
D13*
X133000000Y-89900000D03*
D12*
X135100000Y-82400000D03*
X124100000Y-93400000D03*
D13*
X126199992Y-89899836D03*
D12*
X135099992Y-93399836D03*
X124099992Y-82399836D03*
D11*
X126199992Y-84999836D03*
%TD*%
%TO.C,SW11*%
X126199992Y-101999836D03*
D12*
X124099992Y-99399836D03*
X135099992Y-110399836D03*
D13*
X126199992Y-106899836D03*
D12*
X124100000Y-110400000D03*
X135100000Y-99400000D03*
D13*
X133000000Y-106900000D03*
D11*
X133000000Y-102000000D03*
D14*
X129600000Y-105800000D03*
D15*
X131150000Y-105800000D03*
X128050000Y-105800000D03*
D16*
X132000000Y-105800000D03*
X127200000Y-105800000D03*
D17*
X129600000Y-107700000D03*
X129600000Y-103900000D03*
%TD*%
%TO.C,SW12*%
X129600000Y-128900000D03*
X129600000Y-132700000D03*
D16*
X127200000Y-130800000D03*
X132000000Y-130800000D03*
D15*
X128050000Y-130800000D03*
X131150000Y-130800000D03*
D14*
X129600000Y-130800000D03*
D11*
X133000000Y-127000000D03*
D13*
X133000000Y-131900000D03*
D12*
X135100000Y-124400000D03*
X124100000Y-135400000D03*
D13*
X126199992Y-131899836D03*
D12*
X135099992Y-135399836D03*
X124099992Y-124399836D03*
D11*
X126199992Y-126999836D03*
%TD*%
D17*
%TO.C,SW13*%
X148600000Y-76900000D03*
X148600000Y-80700000D03*
D16*
X146200000Y-78800000D03*
X151000000Y-78800000D03*
D15*
X147050000Y-78800000D03*
X150150000Y-78800000D03*
D14*
X148600000Y-78800000D03*
D11*
X152000000Y-75000000D03*
D13*
X152000000Y-79900000D03*
D12*
X154100000Y-72400000D03*
X143100000Y-83400000D03*
D13*
X145199992Y-79899836D03*
D12*
X154099992Y-83399836D03*
X143099992Y-72399836D03*
D11*
X145199992Y-74999836D03*
%TD*%
D17*
%TO.C,SW15*%
X148600000Y-110900000D03*
X148600000Y-114700000D03*
D16*
X146200000Y-112800000D03*
X151000000Y-112800000D03*
D15*
X147050000Y-112800000D03*
X150150000Y-112800000D03*
D14*
X148600000Y-112800000D03*
D11*
X152000000Y-109000000D03*
D13*
X152000000Y-113900000D03*
D12*
X154100000Y-106400000D03*
X143100000Y-117400000D03*
D13*
X145199992Y-113899836D03*
D12*
X154099992Y-117399836D03*
X143099992Y-106399836D03*
D11*
X145199992Y-108999836D03*
%TD*%
%TO.C,SW16*%
X145199992Y-126999836D03*
D12*
X143099992Y-124399836D03*
X154099992Y-135399836D03*
D13*
X145199992Y-131899836D03*
D12*
X143100000Y-135400000D03*
X154100000Y-124400000D03*
D13*
X152000000Y-131900000D03*
D11*
X152000000Y-127000000D03*
D14*
X148600000Y-130800000D03*
D15*
X150150000Y-130800000D03*
X147050000Y-130800000D03*
D16*
X151000000Y-130800000D03*
X146200000Y-130800000D03*
D17*
X148600000Y-132700000D03*
X148600000Y-128900000D03*
%TD*%
D11*
%TO.C,SW17*%
X164199992Y-75999836D03*
D12*
X162099992Y-73399836D03*
X173099992Y-84399836D03*
D13*
X164199992Y-80899836D03*
D12*
X162100000Y-84400000D03*
X173100000Y-73400000D03*
D13*
X171000000Y-80900000D03*
D11*
X171000000Y-76000000D03*
D14*
X167600000Y-79800000D03*
D15*
X169150000Y-79800000D03*
X166050000Y-79800000D03*
D16*
X170000000Y-79800000D03*
X165200000Y-79800000D03*
D17*
X167600000Y-81700000D03*
X167600000Y-77900000D03*
%TD*%
%TO.C,SW18*%
X167600000Y-94900000D03*
X167600000Y-98700000D03*
D16*
X165200000Y-96800000D03*
X170000000Y-96800000D03*
D15*
X166050000Y-96800000D03*
X169150000Y-96800000D03*
D14*
X167600000Y-96800000D03*
D11*
X171000000Y-93000000D03*
D13*
X171000000Y-97900000D03*
D12*
X173100000Y-90400000D03*
X162100000Y-101400000D03*
D13*
X164199992Y-97899836D03*
D12*
X173099992Y-101399836D03*
X162099992Y-90399836D03*
D11*
X164199992Y-92999836D03*
%TD*%
D17*
%TO.C,SW19*%
X167600000Y-111900000D03*
X167600000Y-115700000D03*
D16*
X165200000Y-113800000D03*
X170000000Y-113800000D03*
D15*
X166050000Y-113800000D03*
X169150000Y-113800000D03*
D14*
X167600000Y-113800000D03*
D11*
X171000000Y-110000000D03*
D13*
X171000000Y-114900000D03*
D12*
X173100000Y-107400000D03*
X162100000Y-118400000D03*
D13*
X164199992Y-114899836D03*
D12*
X173099992Y-118399836D03*
X162099992Y-107399836D03*
D11*
X164199992Y-109999836D03*
%TD*%
D17*
%TO.C,SW21*%
X186600000Y-115580000D03*
X186600000Y-119380000D03*
D16*
X184200000Y-117480000D03*
X189000000Y-117480000D03*
D15*
X185050000Y-117480000D03*
X188150000Y-117480000D03*
D14*
X186600000Y-117480000D03*
D11*
X190000000Y-113680000D03*
D13*
X190000000Y-118580000D03*
D12*
X192100000Y-111080000D03*
X181100000Y-122080000D03*
D13*
X183199992Y-118579836D03*
D12*
X192099992Y-122079836D03*
X181099992Y-111079836D03*
D11*
X183199992Y-113679836D03*
%TD*%
D21*
%TO.C,U1*%
X181436400Y-67022000D03*
X181436400Y-69562000D03*
X181436400Y-72102000D03*
X181436400Y-74642000D03*
X181436400Y-77182000D03*
X181436400Y-79722000D03*
X181436400Y-82262000D03*
X181436400Y-84802000D03*
X181436400Y-87342000D03*
X181436400Y-89882000D03*
X181436400Y-92422000D03*
X181436400Y-94962000D03*
X196656400Y-94962000D03*
X196656400Y-92422000D03*
X196656400Y-89882000D03*
X196656400Y-87342000D03*
X196656400Y-84802000D03*
X196656400Y-82262000D03*
X196656400Y-79722000D03*
X196656400Y-77182000D03*
X196656400Y-74642000D03*
X196656400Y-72102000D03*
X196656400Y-69562000D03*
X196656400Y-67022000D03*
X180110000Y-68292000D03*
X180110000Y-70832000D03*
X180110000Y-73372000D03*
X180110000Y-75912000D03*
X180110000Y-78452000D03*
X180110000Y-80992000D03*
X180110000Y-83532000D03*
X180110000Y-86072000D03*
X180110000Y-88612000D03*
X180110000Y-91152000D03*
X180110000Y-93692000D03*
X180110000Y-96232000D03*
X195350000Y-96232000D03*
X195350000Y-93692000D03*
X195350000Y-91152000D03*
X195350000Y-88612000D03*
X195350000Y-86072000D03*
X195350000Y-83532000D03*
X195350000Y-80992000D03*
X195350000Y-78452000D03*
X195350000Y-75912000D03*
X195350000Y-73372000D03*
X195350000Y-70832000D03*
X195350000Y-68292000D03*
%TD*%
D11*
%TO.C,SW20*%
X166823224Y-128498843D03*
D12*
X165414600Y-125468038D03*
X173426712Y-138802432D03*
D13*
X165637807Y-133253292D03*
D12*
X162753427Y-136141452D03*
X176087821Y-128129340D03*
D13*
X172235786Y-134898522D03*
D11*
X173421203Y-130144073D03*
D22*
X169202894Y-133008662D03*
D23*
X168717746Y-132887701D02*
X169688042Y-133129623D01*
D18*
X170706853Y-133383641D03*
D24*
X170960871Y-132364830D02*
X170452835Y-134402452D01*
D18*
X167698936Y-132633683D03*
D24*
X167952954Y-131614872D02*
X167444918Y-133652494D01*
D25*
X171531604Y-133589275D03*
D26*
X171991256Y-131745713D02*
X171071952Y-135432837D01*
D25*
X166874185Y-132428050D03*
D26*
X167333837Y-130584488D02*
X166414533Y-134271612D01*
D25*
X168743243Y-134852224D03*
D26*
X166414533Y-134271611D02*
X171071953Y-135432837D01*
D25*
X169662546Y-131165100D03*
D26*
X167333836Y-130584487D02*
X171991256Y-131745713D01*
%TD*%
D25*
%TO.C,SW22*%
X188098165Y-135761616D03*
D26*
X185769455Y-135181003D02*
X190426875Y-136342229D01*
D25*
X187178862Y-139448740D03*
D26*
X184850152Y-138868127D02*
X189507572Y-140029353D01*
D25*
X185309804Y-137024566D03*
D26*
X185769456Y-135181004D02*
X184850152Y-138868128D01*
D25*
X189967223Y-138185791D03*
D26*
X190426875Y-136342229D02*
X189507571Y-140029353D01*
D18*
X186134555Y-137230199D03*
D24*
X186388573Y-136211388D02*
X185880537Y-138249010D01*
D18*
X189142472Y-137980157D03*
D24*
X189396490Y-136961346D02*
X188888454Y-138998968D01*
D22*
X187638513Y-137605178D03*
D23*
X187153365Y-137484217D02*
X188123661Y-137726139D01*
D11*
X191856822Y-134740589D03*
D13*
X190671405Y-139495038D03*
D12*
X194523440Y-132725856D03*
X181189046Y-140737968D03*
D13*
X184073426Y-137849808D03*
D12*
X191862331Y-143398948D03*
X183850219Y-130064554D03*
D11*
X185258843Y-133095359D03*
%TD*%
D27*
%TO.C,D1*%
X101000000Y-74025000D03*
X101000000Y-70475000D03*
%TD*%
%TO.C,D2*%
X101000000Y-91275000D03*
X101000000Y-87725000D03*
%TD*%
%TO.C,D3*%
X101000000Y-104975000D03*
X101000000Y-108525000D03*
%TD*%
%TO.C,D4*%
X101000000Y-122225000D03*
X101000000Y-125775000D03*
%TD*%
%TO.C,D5*%
X120000000Y-74225000D03*
X120000000Y-77775000D03*
%TD*%
%TO.C,D6*%
X120000000Y-91225000D03*
X120000000Y-94775000D03*
%TD*%
%TO.C,D7*%
X120000000Y-108225000D03*
X120000000Y-111775000D03*
%TD*%
%TO.C,D8*%
X120000000Y-125225000D03*
X120000000Y-128775000D03*
%TD*%
%TO.C,D9*%
X139000000Y-72525000D03*
X139000000Y-68975000D03*
%TD*%
%TO.C,D10*%
X139000000Y-89525000D03*
X139000000Y-85975000D03*
%TD*%
%TO.C,D11*%
X139000000Y-103225000D03*
X139000000Y-106775000D03*
%TD*%
%TO.C,D12*%
X139000000Y-131775000D03*
X139000000Y-128225000D03*
%TD*%
%TO.C,D13*%
X158000000Y-79525000D03*
X158000000Y-75975000D03*
%TD*%
%TO.C,D14*%
X158000000Y-93225000D03*
X158000000Y-96775000D03*
%TD*%
%TO.C,D15*%
X158000000Y-113775000D03*
X158000000Y-110225000D03*
%TD*%
%TO.C,D16*%
X158000000Y-131475000D03*
X158000000Y-135025000D03*
%TD*%
%TO.C,D17*%
X177000000Y-80775000D03*
X177000000Y-77225000D03*
%TD*%
%TO.C,D18*%
X177000000Y-94225000D03*
X177000000Y-97775000D03*
%TD*%
%TO.C,D19*%
X177000000Y-111225000D03*
X177000000Y-114775000D03*
%TD*%
D28*
%TO.C,D20*%
X177070589Y-140222275D03*
D29*
G36*
X176766948Y-139476670D02*
G01*
X177688729Y-139706496D01*
X177374230Y-140967880D01*
X176452449Y-140738054D01*
X176766948Y-139476670D01*
X176766948Y-139476670D01*
G37*
D28*
X177929411Y-136777725D03*
D29*
G36*
X177625770Y-136032120D02*
G01*
X178547551Y-136261946D01*
X178233052Y-137523330D01*
X177311271Y-137293504D01*
X177625770Y-136032120D01*
X177625770Y-136032120D01*
G37*
%TD*%
D27*
%TO.C,D21*%
X196000000Y-118275000D03*
X196000000Y-114725000D03*
%TD*%
D28*
%TO.C,D22*%
X179070589Y-133222275D03*
D29*
G36*
X178766948Y-132476670D02*
G01*
X179688729Y-132706496D01*
X179374230Y-133967880D01*
X178452449Y-133738054D01*
X178766948Y-132476670D01*
X178766948Y-132476670D01*
G37*
D28*
X179929411Y-129777725D03*
D29*
G36*
X179625770Y-129032120D02*
G01*
X180547551Y-129261946D01*
X180233052Y-130523330D01*
X179311271Y-130293504D01*
X179625770Y-129032120D01*
X179625770Y-129032120D01*
G37*
%TD*%
M02*
