M48
; DRILL file {KiCad (5.1.0)-1} date 2021/02/23 0:32:40
; FORMAT={-:-/ absolute / metric / decimal}
; #@! TF.CreationDate,2021-02-23T00:32:40+09:00
; #@! TF.GenerationSoftware,Kicad,Pcbnew,(5.1.0)-1
; #@! TF.FileFunction,NonPlated,1,2,NPTH
FMAT,2
METRIC
T1C0.300
T2C1.200
T3C1.300
T4C2.000
T5C4.100
%
G90
G05
T2
X190.5Y-101.25
X190.5Y-103.0
X197.5Y-101.25
X197.5Y-103.0
T3
X124.1Y-124.4
X124.1Y-135.4
X135.1Y-135.4
X135.1Y-124.4
X86.1Y-67.4
X86.1Y-78.4
X97.1Y-78.4
X97.1Y-67.4
X181.1Y-111.08
X181.1Y-122.08
X192.1Y-122.08
X192.1Y-111.08
X86.1Y-84.4
X86.1Y-95.4
X97.1Y-95.4
X97.1Y-84.4
X124.1Y-99.4
X124.1Y-110.4
X135.1Y-110.4
X135.1Y-99.4
X105.1Y-104.4
X105.1Y-115.4
X116.1Y-115.4
X116.1Y-104.4
X124.1Y-65.4
X124.1Y-76.4
X135.1Y-76.4
X135.1Y-65.4
X143.1Y-89.4
X143.1Y-100.4
X154.1Y-100.4
X154.1Y-89.4
X143.1Y-106.4
X143.1Y-117.4
X154.1Y-117.4
X154.1Y-106.4
X86.1Y-118.4
X86.1Y-129.4
X97.1Y-129.4
X97.1Y-118.4
X143.1Y-72.4
X143.1Y-83.4
X154.1Y-83.4
X154.1Y-72.4
X162.753Y-136.141
X165.415Y-125.468
X173.427Y-138.802
X176.088Y-128.129
X86.1Y-101.4
X86.1Y-112.4
X97.1Y-112.4
X97.1Y-101.4
X124.1Y-82.4
X124.1Y-93.4
X135.1Y-93.4
X135.1Y-82.4
X143.1Y-124.4
X143.1Y-135.4
X154.1Y-135.4
X154.1Y-124.4
X105.1Y-70.4
X105.1Y-81.4
X116.1Y-81.4
X116.1Y-70.4
X162.1Y-90.4
X162.1Y-101.4
X173.1Y-101.4
X173.1Y-90.4
X162.1Y-73.4
X162.1Y-84.4
X173.1Y-84.4
X173.1Y-73.4
X181.189Y-140.738
X183.85Y-130.065
X191.862Y-143.399
X194.523Y-132.726
X162.1Y-107.4
X162.1Y-118.4
X173.1Y-118.4
X173.1Y-107.4
X105.1Y-87.4
X105.1Y-98.4
X116.1Y-98.4
X116.1Y-87.4
X105.1Y-121.4
X105.1Y-132.4
X116.1Y-132.4
X116.1Y-121.4
T1
G00X108.2Y-91.9
M15
G01X108.2Y-95.7
M16
G05
G00X108.2Y-91.9
M15
G01X113.0Y-91.9
M16
G05
G00X108.2Y-95.7
M15
G01X113.0Y-95.7
M16
G05
G00X113.0Y-91.9
M15
G01X113.0Y-95.7
M16
G05
G00X108.2Y-125.9
M15
G01X108.2Y-129.7
M16
G05
G00X108.2Y-125.9
M15
G01X113.0Y-125.9
M16
G05
G00X108.2Y-129.7
M15
G01X113.0Y-129.7
M16
G05
G00X113.0Y-125.9
M15
G01X113.0Y-129.7
M16
G05
G00X127.2Y-128.9
M15
G01X127.2Y-132.7
M16
G05
G00X127.2Y-128.9
M15
G01X132.0Y-128.9
M16
G05
G00X127.2Y-132.7
M15
G01X132.0Y-132.7
M16
G05
G00X132.0Y-128.9
M15
G01X132.0Y-132.7
M16
G05
G00X89.2Y-71.9
M15
G01X89.2Y-75.7
M16
G05
G00X89.2Y-71.9
M15
G01X94.0Y-71.9
M16
G05
G00X89.2Y-75.7
M15
G01X94.0Y-75.7
M16
G05
G00X94.0Y-71.9
M15
G01X94.0Y-75.7
M16
G05
G00X184.2Y-115.58
M15
G01X184.2Y-119.38
M16
G05
G00X184.2Y-115.58
M15
G01X189.0Y-115.58
M16
G05
G00X184.2Y-119.38
M15
G01X189.0Y-119.38
M16
G05
G00X189.0Y-115.58
M15
G01X189.0Y-119.38
M16
G05
G00X89.2Y-88.9
M15
G01X89.2Y-92.7
M16
G05
G00X89.2Y-88.9
M15
G01X94.0Y-88.9
M16
G05
G00X89.2Y-92.7
M15
G01X94.0Y-92.7
M16
G05
G00X94.0Y-88.9
M15
G01X94.0Y-92.7
M16
G05
G00X127.2Y-103.9
M15
G01X127.2Y-107.7
M16
G05
G00X127.2Y-103.9
M15
G01X132.0Y-103.9
M16
G05
G00X127.2Y-107.7
M15
G01X132.0Y-107.7
M16
G05
G00X132.0Y-103.9
M15
G01X132.0Y-107.7
M16
G05
G00X108.2Y-108.9
M15
G01X108.2Y-112.7
M16
G05
G00X108.2Y-108.9
M15
G01X113.0Y-108.9
M16
G05
G00X108.2Y-112.7
M15
G01X113.0Y-112.7
M16
G05
G00X113.0Y-108.9
M15
G01X113.0Y-112.7
M16
G05
G00X127.2Y-69.9
M15
G01X127.2Y-73.7
M16
G05
G00X127.2Y-69.9
M15
G01X132.0Y-69.9
M16
G05
G00X127.2Y-73.7
M15
G01X132.0Y-73.7
M16
G05
G00X132.0Y-69.9
M15
G01X132.0Y-73.7
M16
G05
G00X146.2Y-93.9
M15
G01X146.2Y-97.7
M16
G05
G00X146.2Y-93.9
M15
G01X151.0Y-93.9
M16
G05
G00X146.2Y-97.7
M15
G01X151.0Y-97.7
M16
G05
G00X151.0Y-93.9
M15
G01X151.0Y-97.7
M16
G05
G00X146.2Y-110.9
M15
G01X146.2Y-114.7
M16
G05
G00X146.2Y-110.9
M15
G01X151.0Y-110.9
M16
G05
G00X146.2Y-114.7
M15
G01X151.0Y-114.7
M16
G05
G00X151.0Y-110.9
M15
G01X151.0Y-114.7
M16
G05
G00X89.2Y-122.9
M15
G01X89.2Y-126.7
M16
G05
G00X89.2Y-122.9
M15
G01X94.0Y-122.9
M16
G05
G00X89.2Y-126.7
M15
G01X94.0Y-126.7
M16
G05
G00X94.0Y-122.9
M15
G01X94.0Y-126.7
M16
G05
G00X146.2Y-76.9
M15
G01X146.2Y-80.7
M16
G05
G00X146.2Y-76.9
M15
G01X151.0Y-76.9
M16
G05
G00X146.2Y-80.7
M15
G01X151.0Y-80.7
M16
G05
G00X151.0Y-76.9
M15
G01X151.0Y-80.7
M16
G05
G00X167.334Y-130.584
M15
G01X166.415Y-134.272
M16
G05
G00X166.415Y-134.272
M15
G01X171.072Y-135.433
M16
G05
G00X167.334Y-130.584
M15
G01X171.991Y-131.746
M16
G05
G00X171.991Y-131.746
M15
G01X171.072Y-135.433
M16
G05
G00X89.2Y-105.9
M15
G01X89.2Y-109.7
M16
G05
G00X89.2Y-105.9
M15
G01X94.0Y-105.9
M16
G05
G00X89.2Y-109.7
M15
G01X94.0Y-109.7
M16
G05
G00X94.0Y-105.9
M15
G01X94.0Y-109.7
M16
G05
G00X127.2Y-86.9
M15
G01X127.2Y-90.7
M16
G05
G00X127.2Y-86.9
M15
G01X132.0Y-86.9
M16
G05
G00X127.2Y-90.7
M15
G01X132.0Y-90.7
M16
G05
G00X132.0Y-86.9
M15
G01X132.0Y-90.7
M16
G05
G00X146.2Y-128.9
M15
G01X146.2Y-132.7
M16
G05
G00X146.2Y-128.9
M15
G01X151.0Y-128.9
M16
G05
G00X146.2Y-132.7
M15
G01X151.0Y-132.7
M16
G05
G00X151.0Y-128.9
M15
G01X151.0Y-132.7
M16
G05
G00X108.2Y-74.9
M15
G01X108.2Y-78.7
M16
G05
G00X108.2Y-74.9
M15
G01X113.0Y-74.9
M16
G05
G00X108.2Y-78.7
M15
G01X113.0Y-78.7
M16
G05
G00X113.0Y-74.9
M15
G01X113.0Y-78.7
M16
G05
G00X165.2Y-94.9
M15
G01X165.2Y-98.7
M16
G05
G00X165.2Y-94.9
M15
G01X170.0Y-94.9
M16
G05
G00X165.2Y-98.7
M15
G01X170.0Y-98.7
M16
G05
G00X170.0Y-94.9
M15
G01X170.0Y-98.7
M16
G05
G00X165.2Y-77.9
M15
G01X165.2Y-81.7
M16
G05
G00X165.2Y-77.9
M15
G01X170.0Y-77.9
M16
G05
G00X165.2Y-81.7
M15
G01X170.0Y-81.7
M16
G05
G00X170.0Y-77.9
M15
G01X170.0Y-81.7
M16
G05
G00X185.769Y-135.181
M15
G01X184.85Y-138.868
M16
G05
G00X184.85Y-138.868
M15
G01X189.508Y-140.029
M16
G05
G00X185.769Y-135.181
M15
G01X190.427Y-136.342
M16
G05
G00X190.427Y-136.342
M15
G01X189.508Y-140.029
M16
G05
G00X165.2Y-111.9
M15
G01X165.2Y-115.7
M16
G05
G00X165.2Y-111.9
M15
G01X170.0Y-111.9
M16
G05
G00X165.2Y-115.7
M15
G01X170.0Y-115.7
M16
G05
G00X170.0Y-111.9
M15
G01X170.0Y-115.7
M16
G05
T4
G00X109.05Y-109.75
M15
G01X109.05Y-111.85
M16
G05
G00X112.15Y-109.75
M15
G01X112.15Y-111.85
M16
G05
G00X128.05Y-70.75
M15
G01X128.05Y-72.85
M16
G05
G00X131.15Y-70.75
M15
G01X131.15Y-72.85
M16
G05
G00X147.05Y-94.75
M15
G01X147.05Y-96.85
M16
G05
G00X150.15Y-94.75
M15
G01X150.15Y-96.85
M16
G05
G00X147.05Y-111.75
M15
G01X147.05Y-113.85
M16
G05
G00X150.15Y-111.75
M15
G01X150.15Y-113.85
M16
G05
G00X90.05Y-123.75
M15
G01X90.05Y-125.85
M16
G05
G00X93.15Y-123.75
M15
G01X93.15Y-125.85
M16
G05
G00X147.05Y-77.75
M15
G01X147.05Y-79.85
M16
G05
G00X150.15Y-77.75
M15
G01X150.15Y-79.85
M16
G05
G00X167.953Y-131.615
M15
G01X167.445Y-133.652
M16
G05
G00X170.961Y-132.365
M15
G01X170.453Y-134.402
M16
G05
G00X90.05Y-106.75
M15
G01X90.05Y-108.85
M16
G05
G00X93.15Y-106.75
M15
G01X93.15Y-108.85
M16
G05
G00X128.05Y-87.75
M15
G01X128.05Y-89.85
M16
G05
G00X131.15Y-87.75
M15
G01X131.15Y-89.85
M16
G05
G00X147.05Y-129.75
M15
G01X147.05Y-131.85
M16
G05
G00X150.15Y-129.75
M15
G01X150.15Y-131.85
M16
G05
G00X109.05Y-75.75
M15
G01X109.05Y-77.85
M16
G05
G00X112.15Y-75.75
M15
G01X112.15Y-77.85
M16
G05
G00X166.05Y-95.75
M15
G01X166.05Y-97.85
M16
G05
G00X169.15Y-95.75
M15
G01X169.15Y-97.85
M16
G05
G00X166.05Y-78.75
M15
G01X166.05Y-80.85
M16
G05
G00X169.15Y-78.75
M15
G01X169.15Y-80.85
M16
G05
G00X186.389Y-136.211
M15
G01X185.881Y-138.249
M16
G05
G00X189.396Y-136.961
M15
G01X188.888Y-138.999
M16
G05
G00X166.05Y-112.75
M15
G01X166.05Y-114.85
M16
G05
G00X169.15Y-112.75
M15
G01X169.15Y-114.85
M16
G05
G00X109.05Y-92.75
M15
G01X109.05Y-94.85
M16
G05
G00X112.15Y-92.75
M15
G01X112.15Y-94.85
M16
G05
G00X109.05Y-126.75
M15
G01X109.05Y-128.85
M16
G05
G00X112.15Y-126.75
M15
G01X112.15Y-128.85
M16
G05
G00X128.05Y-129.75
M15
G01X128.05Y-131.85
M16
G05
G00X131.15Y-129.75
M15
G01X131.15Y-131.85
M16
G05
G00X90.05Y-72.75
M15
G01X90.05Y-74.85
M16
G05
G00X93.15Y-72.75
M15
G01X93.15Y-74.85
M16
G05
G00X185.05Y-116.43
M15
G01X185.05Y-118.53
M16
G05
G00X188.15Y-116.43
M15
G01X188.15Y-118.53
M16
G05
G00X90.05Y-89.75
M15
G01X90.05Y-91.85
M16
G05
G00X93.15Y-89.75
M15
G01X93.15Y-91.85
M16
G05
G00X128.05Y-104.75
M15
G01X128.05Y-106.85
M16
G05
G00X131.15Y-104.75
M15
G01X131.15Y-106.85
M16
G05
T5
G00X129.1Y-88.8
M15
G01X130.1Y-88.8
M16
G05
G00X148.1Y-130.8
M15
G01X149.1Y-130.8
M16
G05
G00X110.1Y-76.8
M15
G01X111.1Y-76.8
M16
G05
G00X167.1Y-96.8
M15
G01X168.1Y-96.8
M16
G05
G00X167.1Y-79.8
M15
G01X168.1Y-79.8
M16
G05
G00X187.153Y-137.484
M15
G01X188.124Y-137.726
M16
G05
G00X167.1Y-113.8
M15
G01X168.1Y-113.8
M16
G05
G00X110.1Y-93.8
M15
G01X111.1Y-93.8
M16
G05
G00X110.1Y-127.8
M15
G01X111.1Y-127.8
M16
G05
G00X129.1Y-130.8
M15
G01X130.1Y-130.8
M16
G05
G00X91.1Y-73.8
M15
G01X92.1Y-73.8
M16
G05
G00X186.1Y-117.48
M15
G01X187.1Y-117.48
M16
G05
G00X91.1Y-90.8
M15
G01X92.1Y-90.8
M16
G05
G00X129.1Y-105.8
M15
G01X130.1Y-105.8
M16
G05
G00X110.1Y-110.8
M15
G01X111.1Y-110.8
M16
G05
G00X129.1Y-71.8
M15
G01X130.1Y-71.8
M16
G05
G00X148.1Y-95.8
M15
G01X149.1Y-95.8
M16
G05
G00X148.1Y-112.8
M15
G01X149.1Y-112.8
M16
G05
G00X91.1Y-124.8
M15
G01X92.1Y-124.8
M16
G05
G00X148.1Y-78.8
M15
G01X149.1Y-78.8
M16
G05
G00X168.718Y-132.888
M15
G01X169.688Y-133.13
M16
G05
G00X91.1Y-107.8
M15
G01X92.1Y-107.8
M16
G05
T0
M30
