M48
; DRILL file {KiCad (5.1.0)-1} date 2021/02/23 0:32:40
; FORMAT={-:-/ absolute / metric / decimal}
; #@! TF.CreationDate,2021-02-23T00:32:40+09:00
; #@! TF.GenerationSoftware,Kicad,Pcbnew,(5.1.0)-1
; #@! TF.FileFunction,Plated,1,2,PTH
FMAT,2
METRIC
T1C0.400
T2C0.813
T3C1.000
T4C1.100
T5C1.300
%
G90
G05
T1
X100.387Y-91.888
X100.4Y-108.9
X100.4Y-125.9
X100.512Y-74.513
X101.387Y-122.612
X101.512Y-70.987
X101.625Y-105.375
X101.725Y-87.725
X118.9Y-128.9
X119.1Y-77.9
X119.1Y-94.9
X119.387Y-107.612
X119.4Y-111.9
X120.387Y-125.612
X120.612Y-73.612
X120.612Y-90.612
X137.9Y-106.9
X138.1Y-89.9
X138.1Y-131.9
X138.4Y-72.9
X139.525Y-68.975
X139.725Y-128.225
X139.775Y-103.225
X140.0Y-86.0
X156.987Y-134.012
X157.1Y-79.9
X157.1Y-96.9
X157.4Y-113.9
X158.512Y-76.487
X158.637Y-93.862
X158.637Y-110.862
X158.987Y-130.487
X167.5Y-87.0
X174.5Y-82.5
X176.1Y-97.9
X176.1Y-114.9
X176.275Y-111.225
X176.4Y-80.9
X176.419Y-139.081
X177.0Y-93.0
X177.387Y-77.612
X178.604Y-136.104
X179.354Y-130.354
X179.424Y-133.576
X180.0Y-99.5
X195.08Y-118.58
X195.137Y-113.862
X198.5Y-73.0
T2
X180.11Y-68.292
X180.11Y-70.832
X180.11Y-73.372
X180.11Y-75.912
X180.11Y-78.452
X180.11Y-80.992
X180.11Y-83.532
X180.11Y-86.072
X180.11Y-88.612
X180.11Y-91.152
X180.11Y-93.692
X180.11Y-96.232
X181.436Y-67.022
X181.436Y-69.562
X181.436Y-72.102
X181.436Y-74.642
X181.436Y-77.182
X181.436Y-79.722
X181.436Y-82.262
X181.436Y-84.802
X181.436Y-87.342
X181.436Y-89.882
X181.436Y-92.422
X181.436Y-94.962
X195.35Y-68.292
X195.35Y-70.832
X195.35Y-73.372
X195.35Y-75.912
X195.35Y-78.452
X195.35Y-80.992
X195.35Y-83.532
X195.35Y-86.072
X195.35Y-88.612
X195.35Y-91.152
X195.35Y-93.692
X195.35Y-96.232
X196.656Y-67.022
X196.656Y-69.562
X196.656Y-72.102
X196.656Y-74.642
X196.656Y-77.182
X196.656Y-79.722
X196.656Y-82.262
X196.656Y-84.802
X196.656Y-87.342
X196.656Y-89.882
X196.656Y-92.422
X196.656Y-94.962
T4
X145.2Y-92.0
X145.2Y-96.9
X152.0Y-92.0
X152.0Y-96.9
X145.2Y-109.0
X145.2Y-113.9
X152.0Y-109.0
X152.0Y-113.9
X88.2Y-121.0
X88.2Y-125.9
X95.0Y-121.0
X95.0Y-125.9
X145.2Y-75.0
X145.2Y-79.9
X152.0Y-75.0
X152.0Y-79.9
X165.638Y-133.253
X166.823Y-128.499
X172.236Y-134.899
X173.421Y-130.144
X88.2Y-104.0
X88.2Y-108.9
X95.0Y-104.0
X95.0Y-108.9
X126.2Y-85.0
X126.2Y-89.9
X133.0Y-85.0
X133.0Y-89.9
X145.2Y-127.0
X145.2Y-131.9
X152.0Y-127.0
X152.0Y-131.9
X107.2Y-73.0
X107.2Y-77.9
X114.0Y-73.0
X114.0Y-77.9
X164.2Y-93.0
X164.2Y-97.9
X171.0Y-93.0
X171.0Y-97.9
X164.2Y-76.0
X164.2Y-80.9
X171.0Y-76.0
X171.0Y-80.9
X184.073Y-137.85
X185.259Y-133.095
X190.671Y-139.495
X191.857Y-134.741
X164.2Y-110.0
X164.2Y-114.9
X171.0Y-110.0
X171.0Y-114.9
X107.2Y-90.0
X107.2Y-94.9
X114.0Y-90.0
X114.0Y-94.9
X107.2Y-124.0
X107.2Y-128.9
X114.0Y-124.0
X114.0Y-128.9
X126.2Y-127.0
X126.2Y-131.9
X133.0Y-127.0
X133.0Y-131.9
X88.2Y-70.0
X88.2Y-74.9
X95.0Y-70.0
X95.0Y-74.9
X183.2Y-113.68
X183.2Y-118.58
X190.0Y-113.68
X190.0Y-118.58
X88.2Y-87.0
X88.2Y-91.9
X95.0Y-87.0
X95.0Y-91.9
X126.2Y-102.0
X126.2Y-106.9
X133.0Y-102.0
X133.0Y-106.9
X107.2Y-107.0
X107.2Y-111.9
X114.0Y-107.0
X114.0Y-111.9
X126.2Y-68.0
X126.2Y-72.9
X133.0Y-68.0
X133.0Y-72.9
T5
X184.0Y-98.75
X184.0Y-105.25
T3
G00X187.45Y-100.9
M15
G01X186.95Y-100.9
M16
G05
G00X187.45Y-103.35
M15
G01X186.95Y-103.35
M16
G05
G00X188.95Y-99.15
M15
G01X188.45Y-99.15
M16
G05
G00X188.95Y-105.1
M15
G01X188.45Y-105.1
M16
G05
G00X192.95Y-99.15
M15
G01X192.45Y-99.15
M16
G05
G00X192.95Y-105.1
M15
G01X192.45Y-105.1
M16
G05
G00X195.95Y-99.15
M15
G01X195.45Y-99.15
M16
G05
G00X195.95Y-105.1
M15
G01X195.45Y-105.1
M16
G05
T0
M30
