%TF.GenerationSoftware,KiCad,Pcbnew,(5.1.0)-1*%
%TF.CreationDate,2021-02-23T00:40:23+09:00*%
%TF.ProjectId,topplate,746f7070-6c61-4746-952e-6b696361645f,rev?*%
%TF.SameCoordinates,Original*%
%TF.FileFunction,Legend,Top*%
%TF.FilePolarity,Positive*%
%FSLAX46Y46*%
G04 Gerber Fmt 4.6, Leading zero omitted, Abs format (unit mm)*
G04 Created by KiCad (PCBNEW (5.1.0)-1) date 2021-02-23 00:40:23*
%MOMM*%
%LPD*%
G04 APERTURE LIST*
%ADD10C,0.150000*%
G04 APERTURE END LIST*
%TO.C,H1*%
D10*
X96988095Y-133732380D02*
X96988095Y-132732380D01*
X96988095Y-133208571D02*
X97559523Y-133208571D01*
X97559523Y-133732380D02*
X97559523Y-132732380D01*
X98559523Y-133732380D02*
X97988095Y-133732380D01*
X98273809Y-133732380D02*
X98273809Y-132732380D01*
X98178571Y-132875238D01*
X98083333Y-132970476D01*
X97988095Y-133018095D01*
X133238095Y-116952380D02*
X133238095Y-115952380D01*
X133238095Y-116428571D02*
X133809523Y-116428571D01*
X133809523Y-116952380D02*
X133809523Y-115952380D01*
X134809523Y-116952380D02*
X134238095Y-116952380D01*
X134523809Y-116952380D02*
X134523809Y-115952380D01*
X134428571Y-116095238D01*
X134333333Y-116190476D01*
X134238095Y-116238095D01*
X156238095Y-66952380D02*
X156238095Y-65952380D01*
X156238095Y-66428571D02*
X156809523Y-66428571D01*
X156809523Y-66952380D02*
X156809523Y-65952380D01*
X157809523Y-66952380D02*
X157238095Y-66952380D01*
X157523809Y-66952380D02*
X157523809Y-65952380D01*
X157428571Y-66095238D01*
X157333333Y-66190476D01*
X157238095Y-66238095D01*
X101238095Y-64452380D02*
X101238095Y-63452380D01*
X101238095Y-63928571D02*
X101809523Y-63928571D01*
X101809523Y-64452380D02*
X101809523Y-63452380D01*
X102809523Y-64452380D02*
X102238095Y-64452380D01*
X102523809Y-64452380D02*
X102523809Y-63452380D01*
X102428571Y-63595238D01*
X102333333Y-63690476D01*
X102238095Y-63738095D01*
X192638095Y-126832380D02*
X192638095Y-125832380D01*
X192638095Y-126308571D02*
X193209523Y-126308571D01*
X193209523Y-126832380D02*
X193209523Y-125832380D01*
X194209523Y-126832380D02*
X193638095Y-126832380D01*
X193923809Y-126832380D02*
X193923809Y-125832380D01*
X193828571Y-125975238D01*
X193733333Y-126070476D01*
X193638095Y-126118095D01*
%TD*%
M02*
