%TF.GenerationSoftware,KiCad,Pcbnew,(5.1.0)-1*%
%TF.CreationDate,2021-02-23T00:40:23+09:00*%
%TF.ProjectId,topplate,746f7070-6c61-4746-952e-6b696361645f,rev?*%
%TF.SameCoordinates,Original*%
%TF.FileFunction,Copper,L1,Top*%
%TF.FilePolarity,Positive*%
%FSLAX46Y46*%
G04 Gerber Fmt 4.6, Leading zero omitted, Abs format (unit mm)*
G04 Created by KiCad (PCBNEW (5.1.0)-1) date 2021-02-23 00:40:23*
%MOMM*%
%LPD*%
G04 APERTURE LIST*
%TA.AperFunction,ComponentPad*%
%ADD10C,4.200000*%
%TD*%
%TA.AperFunction,NonConductor*%
%ADD11C,0.254000*%
%TD*%
G04 APERTURE END LIST*
D10*
%TO.P,H1,*%
%TO.N,*%
X97750000Y-132780000D03*
%TD*%
%TO.P,H1,*%
%TO.N,*%
X134000000Y-116000000D03*
%TD*%
%TO.P,H1,*%
%TO.N,*%
X157000000Y-66000000D03*
%TD*%
%TO.P,H1,*%
%TO.N,*%
X102000000Y-63500000D03*
%TD*%
%TO.P,H1,*%
%TO.N,*%
X193400000Y-125880000D03*
%TD*%
D11*
G36*
X192903424Y-146860064D02*
G01*
X190474732Y-146559164D01*
X191075685Y-146629307D01*
X191088644Y-146629540D01*
X191221343Y-146639776D01*
X191261542Y-146638941D01*
X191301711Y-146641067D01*
X191310914Y-146640589D01*
X191701202Y-146617597D01*
X191760301Y-146608267D01*
X191819499Y-146599767D01*
X191828431Y-146597511D01*
X191828436Y-146597510D01*
X191828441Y-146597508D01*
X192206824Y-146499149D01*
X192262960Y-146478527D01*
X192319408Y-146458680D01*
X192327735Y-146454731D01*
X192679812Y-146284746D01*
X192730857Y-146253623D01*
X192782389Y-146223182D01*
X192789790Y-146217691D01*
X193102146Y-145982559D01*
X193122036Y-145964287D01*
X192903424Y-146860064D01*
X192903424Y-146860064D01*
G37*
X192903424Y-146860064D02*
X190474732Y-146559164D01*
X191075685Y-146629307D01*
X191088644Y-146629540D01*
X191221343Y-146639776D01*
X191261542Y-146638941D01*
X191301711Y-146641067D01*
X191310914Y-146640589D01*
X191701202Y-146617597D01*
X191760301Y-146608267D01*
X191819499Y-146599767D01*
X191828431Y-146597511D01*
X191828436Y-146597510D01*
X191828441Y-146597508D01*
X192206824Y-146499149D01*
X192262960Y-146478527D01*
X192319408Y-146458680D01*
X192327735Y-146454731D01*
X192679812Y-146284746D01*
X192730857Y-146253623D01*
X192782389Y-146223182D01*
X192789790Y-146217691D01*
X193102146Y-145982559D01*
X193122036Y-145964287D01*
X192903424Y-146860064D01*
G36*
X173359659Y-60688625D02*
G01*
X173609429Y-60764035D01*
X173839792Y-60886522D01*
X174041980Y-61051422D01*
X174208286Y-61252450D01*
X174332378Y-61481954D01*
X174409531Y-61731195D01*
X174440000Y-62021089D01*
X174440001Y-104032419D01*
X174442852Y-104061364D01*
X174442765Y-104073781D01*
X174443665Y-104082952D01*
X174484466Y-104471145D01*
X174496487Y-104529708D01*
X174507702Y-104588501D01*
X174510366Y-104597323D01*
X174625790Y-104970198D01*
X174648975Y-105025353D01*
X174671379Y-105080806D01*
X174675706Y-105088943D01*
X174861357Y-105432298D01*
X174894780Y-105481849D01*
X174927562Y-105531946D01*
X174933387Y-105539087D01*
X175182194Y-105839841D01*
X175224629Y-105881981D01*
X175266492Y-105924730D01*
X175273592Y-105930604D01*
X175576077Y-106177305D01*
X175625904Y-106210409D01*
X175675259Y-106244204D01*
X175683365Y-106248587D01*
X176028007Y-106431837D01*
X176083311Y-106454631D01*
X176138295Y-106478198D01*
X176147098Y-106480923D01*
X176520770Y-106593741D01*
X176579458Y-106605361D01*
X176637961Y-106617797D01*
X176647126Y-106618760D01*
X177035595Y-106656850D01*
X177035598Y-106656850D01*
X177067581Y-106660000D01*
X195067721Y-106660000D01*
X195359659Y-106688625D01*
X195609429Y-106764035D01*
X195839792Y-106886522D01*
X196041980Y-107051422D01*
X196208286Y-107252450D01*
X196332378Y-107481954D01*
X196409531Y-107731195D01*
X196440001Y-108021101D01*
X196440923Y-128907729D01*
X196409956Y-129223559D01*
X196397763Y-129277716D01*
X192662342Y-144268824D01*
X192564242Y-144546951D01*
X192430999Y-144771997D01*
X192256574Y-144966884D01*
X192047623Y-145124176D01*
X191812099Y-145237888D01*
X191558976Y-145303687D01*
X191278095Y-145320233D01*
X191183686Y-145312951D01*
X149255269Y-140419091D01*
X176608783Y-140419091D01*
X176615305Y-140548935D01*
X176647031Y-140675012D01*
X176702745Y-140792478D01*
X176780305Y-140896818D01*
X176876730Y-140984020D01*
X176988315Y-141050737D01*
X177110772Y-141094402D01*
X177142999Y-141099147D01*
X190664234Y-144470370D01*
X190694912Y-144481309D01*
X190727134Y-144486053D01*
X190727139Y-144486054D01*
X190823533Y-144500245D01*
X190823534Y-144500245D01*
X190953378Y-144493723D01*
X191079455Y-144461997D01*
X191196921Y-144406283D01*
X191301261Y-144328723D01*
X191388463Y-144232298D01*
X191455180Y-144120713D01*
X191487904Y-144028940D01*
X191487904Y-144028939D01*
X191498845Y-143998256D01*
X191503590Y-143966029D01*
X194874813Y-130444794D01*
X194885752Y-130414116D01*
X194894268Y-130356275D01*
X194904688Y-130285495D01*
X194904688Y-130285494D01*
X194898167Y-130155649D01*
X194866440Y-130029572D01*
X194810726Y-129912106D01*
X194733166Y-129807766D01*
X194636741Y-129720564D01*
X194525156Y-129653847D01*
X194433383Y-129621123D01*
X194433373Y-129621120D01*
X194402699Y-129610183D01*
X194370481Y-129605440D01*
X180849239Y-126234216D01*
X180818559Y-126223276D01*
X180786334Y-126218532D01*
X180786331Y-126218531D01*
X180689937Y-126204340D01*
X180560092Y-126210861D01*
X180434015Y-126242588D01*
X180316549Y-126298302D01*
X180212209Y-126375862D01*
X180125007Y-126472287D01*
X180058290Y-126583872D01*
X180025566Y-126675645D01*
X180025563Y-126675655D01*
X180014626Y-126706329D01*
X180009883Y-126738547D01*
X176638659Y-140259789D01*
X176627719Y-140290469D01*
X176622975Y-140322694D01*
X176622974Y-140322697D01*
X176608783Y-140419091D01*
X149255269Y-140419091D01*
X99756276Y-134641598D01*
X99874413Y-134523461D01*
X100173725Y-134075508D01*
X100379895Y-133577770D01*
X100485000Y-133049374D01*
X100485000Y-132510626D01*
X100379895Y-131982230D01*
X100173725Y-131484492D01*
X99874413Y-131036539D01*
X99493461Y-130655587D01*
X99045508Y-130356275D01*
X98547770Y-130150105D01*
X98019374Y-130045000D01*
X97480626Y-130045000D01*
X96952230Y-130150105D01*
X96454492Y-130356275D01*
X96006539Y-130655587D01*
X95625587Y-131036539D01*
X95326275Y-131484492D01*
X95120105Y-131982230D01*
X95015000Y-132510626D01*
X95015000Y-133049374D01*
X95120105Y-133577770D01*
X95326275Y-134075508D01*
X95361801Y-134128677D01*
X81878583Y-132554924D01*
X81591492Y-132492890D01*
X81352038Y-132389304D01*
X81137254Y-132241175D01*
X80955340Y-132054155D01*
X80813214Y-131835360D01*
X80716292Y-131593124D01*
X80664960Y-131319023D01*
X80660000Y-131205580D01*
X80660000Y-115520000D01*
X81836807Y-115520000D01*
X81840000Y-115552419D01*
X81840001Y-129487571D01*
X81836807Y-129520000D01*
X81849550Y-129649383D01*
X81887290Y-129773793D01*
X81948575Y-129888450D01*
X82031052Y-129988948D01*
X82131550Y-130071425D01*
X82246207Y-130132710D01*
X82370617Y-130170450D01*
X82467581Y-130180000D01*
X82500000Y-130183193D01*
X82532419Y-130180000D01*
X96467581Y-130180000D01*
X96500000Y-130183193D01*
X96532419Y-130180000D01*
X96629383Y-130170450D01*
X96753793Y-130132710D01*
X96868450Y-130071425D01*
X96968948Y-129988948D01*
X97051425Y-129888450D01*
X97112710Y-129773793D01*
X97150450Y-129649383D01*
X97163193Y-129520000D01*
X97160000Y-129487581D01*
X97160000Y-118500000D01*
X100836807Y-118500000D01*
X100840000Y-118532419D01*
X100840001Y-132467571D01*
X100836807Y-132500000D01*
X100849550Y-132629383D01*
X100887290Y-132753793D01*
X100948575Y-132868450D01*
X101031052Y-132968948D01*
X101131550Y-133051425D01*
X101246207Y-133112710D01*
X101370617Y-133150450D01*
X101467581Y-133160000D01*
X101500000Y-133163193D01*
X101532419Y-133160000D01*
X115467581Y-133160000D01*
X115500000Y-133163193D01*
X115532419Y-133160000D01*
X115629383Y-133150450D01*
X115753793Y-133112710D01*
X115868450Y-133051425D01*
X115968948Y-132968948D01*
X116051425Y-132868450D01*
X116112710Y-132753793D01*
X116150450Y-132629383D01*
X116163193Y-132500000D01*
X116160000Y-132467581D01*
X116160000Y-121500000D01*
X119836807Y-121500000D01*
X119840000Y-121532419D01*
X119840001Y-135467571D01*
X119836807Y-135500000D01*
X119849550Y-135629383D01*
X119887290Y-135753793D01*
X119948575Y-135868450D01*
X120031052Y-135968948D01*
X120131550Y-136051425D01*
X120246207Y-136112710D01*
X120370617Y-136150450D01*
X120467581Y-136160000D01*
X120500000Y-136163193D01*
X120532419Y-136160000D01*
X134467581Y-136160000D01*
X134500000Y-136163193D01*
X134532419Y-136160000D01*
X134629383Y-136150450D01*
X134753793Y-136112710D01*
X134868450Y-136051425D01*
X134968948Y-135968948D01*
X135051425Y-135868450D01*
X135112710Y-135753793D01*
X135150450Y-135629383D01*
X135163193Y-135500000D01*
X135160000Y-135467581D01*
X135160000Y-121532419D01*
X135163193Y-121500000D01*
X138836807Y-121500000D01*
X138840000Y-121532419D01*
X138840001Y-135467571D01*
X138836807Y-135500000D01*
X138849550Y-135629383D01*
X138887290Y-135753793D01*
X138948575Y-135868450D01*
X139031052Y-135968948D01*
X139131550Y-136051425D01*
X139246207Y-136112710D01*
X139370617Y-136150450D01*
X139467581Y-136160000D01*
X139500000Y-136163193D01*
X139532419Y-136160000D01*
X153467581Y-136160000D01*
X153500000Y-136163193D01*
X153532419Y-136160000D01*
X153629383Y-136150450D01*
X153753793Y-136112710D01*
X153868450Y-136051425D01*
X153968948Y-135968948D01*
X154051425Y-135868450D01*
X154072462Y-135829091D01*
X158168783Y-135829091D01*
X158175305Y-135958935D01*
X158207031Y-136085012D01*
X158262745Y-136202478D01*
X158340305Y-136306818D01*
X158436730Y-136394020D01*
X158548315Y-136460737D01*
X158670772Y-136504402D01*
X158702999Y-136509147D01*
X172224234Y-139880370D01*
X172254912Y-139891309D01*
X172287134Y-139896053D01*
X172287139Y-139896054D01*
X172383533Y-139910245D01*
X172383534Y-139910245D01*
X172513378Y-139903723D01*
X172639455Y-139871997D01*
X172756921Y-139816283D01*
X172861261Y-139738723D01*
X172948463Y-139642298D01*
X173015180Y-139530713D01*
X173047904Y-139438940D01*
X173047904Y-139438939D01*
X173058845Y-139408256D01*
X173063590Y-139376029D01*
X176434813Y-125854794D01*
X176445752Y-125824116D01*
X176464688Y-125695494D01*
X176460426Y-125610626D01*
X190665000Y-125610626D01*
X190665000Y-126149374D01*
X190770105Y-126677770D01*
X190976275Y-127175508D01*
X191275587Y-127623461D01*
X191656539Y-128004413D01*
X192104492Y-128303725D01*
X192602230Y-128509895D01*
X193130626Y-128615000D01*
X193669374Y-128615000D01*
X194197770Y-128509895D01*
X194695508Y-128303725D01*
X195143461Y-128004413D01*
X195524413Y-127623461D01*
X195823725Y-127175508D01*
X196029895Y-126677770D01*
X196135000Y-126149374D01*
X196135000Y-125610626D01*
X196029895Y-125082230D01*
X195823725Y-124584492D01*
X195524413Y-124136539D01*
X195143461Y-123755587D01*
X194695508Y-123456275D01*
X194197770Y-123250105D01*
X193669374Y-123145000D01*
X193130626Y-123145000D01*
X192602230Y-123250105D01*
X192104492Y-123456275D01*
X191656539Y-123755587D01*
X191275587Y-124136539D01*
X190976275Y-124584492D01*
X190770105Y-125082230D01*
X190665000Y-125610626D01*
X176460426Y-125610626D01*
X176458167Y-125565649D01*
X176426440Y-125439572D01*
X176370726Y-125322106D01*
X176293166Y-125217766D01*
X176196741Y-125130564D01*
X176085156Y-125063847D01*
X175993383Y-125031123D01*
X175993373Y-125031120D01*
X175962699Y-125020183D01*
X175930481Y-125015440D01*
X162409239Y-121644216D01*
X162378559Y-121633276D01*
X162346334Y-121628532D01*
X162346331Y-121628531D01*
X162249937Y-121614340D01*
X162120092Y-121620861D01*
X161994015Y-121652588D01*
X161876549Y-121708302D01*
X161772209Y-121785862D01*
X161685007Y-121882287D01*
X161618290Y-121993872D01*
X161585566Y-122085645D01*
X161585563Y-122085655D01*
X161574626Y-122116329D01*
X161569883Y-122148547D01*
X158198659Y-135669789D01*
X158187719Y-135700469D01*
X158182975Y-135732694D01*
X158182974Y-135732697D01*
X158168783Y-135829091D01*
X154072462Y-135829091D01*
X154112710Y-135753793D01*
X154150450Y-135629383D01*
X154163193Y-135500000D01*
X154160000Y-135467581D01*
X154160000Y-121532419D01*
X154163193Y-121500000D01*
X154150450Y-121370617D01*
X154112710Y-121246207D01*
X154051425Y-121131550D01*
X153968948Y-121031052D01*
X153868450Y-120948575D01*
X153753793Y-120887290D01*
X153629383Y-120849550D01*
X153532419Y-120840000D01*
X153500000Y-120836807D01*
X153467581Y-120840000D01*
X139532419Y-120840000D01*
X139500000Y-120836807D01*
X139467581Y-120840000D01*
X139370617Y-120849550D01*
X139246207Y-120887290D01*
X139131550Y-120948575D01*
X139031052Y-121031052D01*
X138948575Y-121131550D01*
X138887290Y-121246207D01*
X138849550Y-121370617D01*
X138836807Y-121500000D01*
X135163193Y-121500000D01*
X135150450Y-121370617D01*
X135112710Y-121246207D01*
X135051425Y-121131550D01*
X134968948Y-121031052D01*
X134868450Y-120948575D01*
X134753793Y-120887290D01*
X134629383Y-120849550D01*
X134532419Y-120840000D01*
X134500000Y-120836807D01*
X134467581Y-120840000D01*
X120532419Y-120840000D01*
X120500000Y-120836807D01*
X120467581Y-120840000D01*
X120370617Y-120849550D01*
X120246207Y-120887290D01*
X120131550Y-120948575D01*
X120031052Y-121031052D01*
X119948575Y-121131550D01*
X119887290Y-121246207D01*
X119849550Y-121370617D01*
X119836807Y-121500000D01*
X116160000Y-121500000D01*
X116160000Y-118532419D01*
X116163193Y-118500000D01*
X116150450Y-118370617D01*
X116112710Y-118246207D01*
X116051425Y-118131550D01*
X115968948Y-118031052D01*
X115868450Y-117948575D01*
X115753793Y-117887290D01*
X115629383Y-117849550D01*
X115532419Y-117840000D01*
X115500000Y-117836807D01*
X115467581Y-117840000D01*
X101532419Y-117840000D01*
X101500000Y-117836807D01*
X101467581Y-117840000D01*
X101370617Y-117849550D01*
X101246207Y-117887290D01*
X101131550Y-117948575D01*
X101031052Y-118031052D01*
X100948575Y-118131550D01*
X100887290Y-118246207D01*
X100849550Y-118370617D01*
X100836807Y-118500000D01*
X97160000Y-118500000D01*
X97160000Y-115552419D01*
X97163193Y-115520000D01*
X97150450Y-115390617D01*
X97112710Y-115266207D01*
X97051425Y-115151550D01*
X96968948Y-115051052D01*
X96868450Y-114968575D01*
X96753793Y-114907290D01*
X96629383Y-114869550D01*
X96532419Y-114860000D01*
X96500000Y-114856807D01*
X96467581Y-114860000D01*
X82532419Y-114860000D01*
X82500000Y-114856807D01*
X82467581Y-114860000D01*
X82370617Y-114869550D01*
X82246207Y-114907290D01*
X82131550Y-114968575D01*
X82031052Y-115051052D01*
X81948575Y-115151550D01*
X81887290Y-115266207D01*
X81849550Y-115390617D01*
X81836807Y-115520000D01*
X80660000Y-115520000D01*
X80660000Y-98520000D01*
X81836807Y-98520000D01*
X81840000Y-98552419D01*
X81840001Y-112487571D01*
X81836807Y-112520000D01*
X81849550Y-112649383D01*
X81887290Y-112773793D01*
X81948575Y-112888450D01*
X82031052Y-112988948D01*
X82131550Y-113071425D01*
X82246207Y-113132710D01*
X82370617Y-113170450D01*
X82467581Y-113180000D01*
X82500000Y-113183193D01*
X82532419Y-113180000D01*
X96467581Y-113180000D01*
X96500000Y-113183193D01*
X96532419Y-113180000D01*
X96629383Y-113170450D01*
X96753793Y-113132710D01*
X96868450Y-113071425D01*
X96968948Y-112988948D01*
X97051425Y-112888450D01*
X97112710Y-112773793D01*
X97150450Y-112649383D01*
X97163193Y-112520000D01*
X97160000Y-112487581D01*
X97160000Y-101500000D01*
X100836807Y-101500000D01*
X100840000Y-101532419D01*
X100840001Y-115467571D01*
X100836807Y-115500000D01*
X100849550Y-115629383D01*
X100887290Y-115753793D01*
X100948575Y-115868450D01*
X101031052Y-115968948D01*
X101131550Y-116051425D01*
X101246207Y-116112710D01*
X101370617Y-116150450D01*
X101467581Y-116160000D01*
X101500000Y-116163193D01*
X101532419Y-116160000D01*
X115467581Y-116160000D01*
X115500000Y-116163193D01*
X115532419Y-116160000D01*
X115629383Y-116150450D01*
X115753793Y-116112710D01*
X115868450Y-116051425D01*
X115968948Y-115968948D01*
X116051425Y-115868450D01*
X116112710Y-115753793D01*
X116119737Y-115730626D01*
X131265000Y-115730626D01*
X131265000Y-116269374D01*
X131370105Y-116797770D01*
X131576275Y-117295508D01*
X131875587Y-117743461D01*
X132256539Y-118124413D01*
X132704492Y-118423725D01*
X133202230Y-118629895D01*
X133730626Y-118735000D01*
X134269374Y-118735000D01*
X134797770Y-118629895D01*
X135295508Y-118423725D01*
X135743461Y-118124413D01*
X136124413Y-117743461D01*
X136423725Y-117295508D01*
X136629895Y-116797770D01*
X136735000Y-116269374D01*
X136735000Y-115730626D01*
X136629895Y-115202230D01*
X136423725Y-114704492D01*
X136124413Y-114256539D01*
X135743461Y-113875587D01*
X135295508Y-113576275D01*
X134797770Y-113370105D01*
X134269374Y-113265000D01*
X133730626Y-113265000D01*
X133202230Y-113370105D01*
X132704492Y-113576275D01*
X132256539Y-113875587D01*
X131875587Y-114256539D01*
X131576275Y-114704492D01*
X131370105Y-115202230D01*
X131265000Y-115730626D01*
X116119737Y-115730626D01*
X116150450Y-115629383D01*
X116163193Y-115500000D01*
X116160000Y-115467581D01*
X116160000Y-101532419D01*
X116163193Y-101500000D01*
X116150450Y-101370617D01*
X116112710Y-101246207D01*
X116051425Y-101131550D01*
X115968948Y-101031052D01*
X115868450Y-100948575D01*
X115753793Y-100887290D01*
X115629383Y-100849550D01*
X115532419Y-100840000D01*
X115500000Y-100836807D01*
X115467581Y-100840000D01*
X101532419Y-100840000D01*
X101500000Y-100836807D01*
X101467581Y-100840000D01*
X101370617Y-100849550D01*
X101246207Y-100887290D01*
X101131550Y-100948575D01*
X101031052Y-101031052D01*
X100948575Y-101131550D01*
X100887290Y-101246207D01*
X100849550Y-101370617D01*
X100836807Y-101500000D01*
X97160000Y-101500000D01*
X97160000Y-98552419D01*
X97163193Y-98520000D01*
X97150450Y-98390617D01*
X97112710Y-98266207D01*
X97051425Y-98151550D01*
X96968948Y-98051052D01*
X96868450Y-97968575D01*
X96753793Y-97907290D01*
X96629383Y-97869550D01*
X96532419Y-97860000D01*
X96500000Y-97856807D01*
X96467581Y-97860000D01*
X82532419Y-97860000D01*
X82500000Y-97856807D01*
X82467581Y-97860000D01*
X82370617Y-97869550D01*
X82246207Y-97907290D01*
X82131550Y-97968575D01*
X82031052Y-98051052D01*
X81948575Y-98151550D01*
X81887290Y-98266207D01*
X81849550Y-98390617D01*
X81836807Y-98520000D01*
X80660000Y-98520000D01*
X80660000Y-81520000D01*
X81836807Y-81520000D01*
X81840000Y-81552419D01*
X81840001Y-95487571D01*
X81836807Y-95520000D01*
X81849550Y-95649383D01*
X81887290Y-95773793D01*
X81948575Y-95888450D01*
X82031052Y-95988948D01*
X82131550Y-96071425D01*
X82246207Y-96132710D01*
X82370617Y-96170450D01*
X82467581Y-96180000D01*
X82500000Y-96183193D01*
X82532419Y-96180000D01*
X96467581Y-96180000D01*
X96500000Y-96183193D01*
X96532419Y-96180000D01*
X96629383Y-96170450D01*
X96753793Y-96132710D01*
X96868450Y-96071425D01*
X96968948Y-95988948D01*
X97051425Y-95888450D01*
X97112710Y-95773793D01*
X97150450Y-95649383D01*
X97163193Y-95520000D01*
X97160000Y-95487581D01*
X97160000Y-84500000D01*
X100836807Y-84500000D01*
X100840000Y-84532419D01*
X100840001Y-98467571D01*
X100836807Y-98500000D01*
X100849550Y-98629383D01*
X100887290Y-98753793D01*
X100948575Y-98868450D01*
X101031052Y-98968948D01*
X101131550Y-99051425D01*
X101246207Y-99112710D01*
X101370617Y-99150450D01*
X101467581Y-99160000D01*
X101500000Y-99163193D01*
X101532419Y-99160000D01*
X115467581Y-99160000D01*
X115500000Y-99163193D01*
X115532419Y-99160000D01*
X115629383Y-99150450D01*
X115753793Y-99112710D01*
X115868450Y-99051425D01*
X115968948Y-98968948D01*
X116051425Y-98868450D01*
X116112710Y-98753793D01*
X116150450Y-98629383D01*
X116163193Y-98500000D01*
X116160000Y-98467581D01*
X116160000Y-96500000D01*
X119836807Y-96500000D01*
X119840000Y-96532419D01*
X119840001Y-110467571D01*
X119836807Y-110500000D01*
X119849550Y-110629383D01*
X119887290Y-110753793D01*
X119948575Y-110868450D01*
X120031052Y-110968948D01*
X120131550Y-111051425D01*
X120246207Y-111112710D01*
X120370617Y-111150450D01*
X120467581Y-111160000D01*
X120500000Y-111163193D01*
X120532419Y-111160000D01*
X134467581Y-111160000D01*
X134500000Y-111163193D01*
X134532419Y-111160000D01*
X134629383Y-111150450D01*
X134753793Y-111112710D01*
X134868450Y-111051425D01*
X134968948Y-110968948D01*
X135051425Y-110868450D01*
X135112710Y-110753793D01*
X135150450Y-110629383D01*
X135163193Y-110500000D01*
X135160000Y-110467581D01*
X135160000Y-103500000D01*
X138836807Y-103500000D01*
X138840000Y-103532419D01*
X138840001Y-117467571D01*
X138836807Y-117500000D01*
X138849550Y-117629383D01*
X138887290Y-117753793D01*
X138948575Y-117868450D01*
X139031052Y-117968948D01*
X139131550Y-118051425D01*
X139246207Y-118112710D01*
X139370617Y-118150450D01*
X139467581Y-118160000D01*
X139500000Y-118163193D01*
X139532419Y-118160000D01*
X153467581Y-118160000D01*
X153500000Y-118163193D01*
X153532419Y-118160000D01*
X153629383Y-118150450D01*
X153753793Y-118112710D01*
X153868450Y-118051425D01*
X153968948Y-117968948D01*
X154051425Y-117868450D01*
X154112710Y-117753793D01*
X154150450Y-117629383D01*
X154163193Y-117500000D01*
X154160000Y-117467581D01*
X154160000Y-104500000D01*
X157836807Y-104500000D01*
X157840000Y-104532419D01*
X157840001Y-118467571D01*
X157836807Y-118500000D01*
X157849550Y-118629383D01*
X157887290Y-118753793D01*
X157948575Y-118868450D01*
X158031052Y-118968948D01*
X158131550Y-119051425D01*
X158246207Y-119112710D01*
X158370617Y-119150450D01*
X158467581Y-119160000D01*
X158500000Y-119163193D01*
X158532419Y-119160000D01*
X172467581Y-119160000D01*
X172500000Y-119163193D01*
X172532419Y-119160000D01*
X172629383Y-119150450D01*
X172753793Y-119112710D01*
X172868450Y-119051425D01*
X172968948Y-118968948D01*
X173051425Y-118868450D01*
X173112710Y-118753793D01*
X173150450Y-118629383D01*
X173163193Y-118500000D01*
X173160000Y-118467581D01*
X173160000Y-108180000D01*
X176836807Y-108180000D01*
X176840000Y-108212419D01*
X176840001Y-122147571D01*
X176836807Y-122180000D01*
X176849550Y-122309383D01*
X176887290Y-122433793D01*
X176948575Y-122548450D01*
X177031052Y-122648948D01*
X177131550Y-122731425D01*
X177246207Y-122792710D01*
X177370617Y-122830450D01*
X177467581Y-122840000D01*
X177500000Y-122843193D01*
X177532419Y-122840000D01*
X191467581Y-122840000D01*
X191500000Y-122843193D01*
X191532419Y-122840000D01*
X191629383Y-122830450D01*
X191753793Y-122792710D01*
X191868450Y-122731425D01*
X191968948Y-122648948D01*
X192051425Y-122548450D01*
X192112710Y-122433793D01*
X192150450Y-122309383D01*
X192163193Y-122180000D01*
X192160000Y-122147581D01*
X192160000Y-108212419D01*
X192163193Y-108180000D01*
X192150450Y-108050617D01*
X192112710Y-107926207D01*
X192051425Y-107811550D01*
X191968948Y-107711052D01*
X191868450Y-107628575D01*
X191753793Y-107567290D01*
X191629383Y-107529550D01*
X191532419Y-107520000D01*
X191500000Y-107516807D01*
X191467581Y-107520000D01*
X177532419Y-107520000D01*
X177500000Y-107516807D01*
X177467581Y-107520000D01*
X177370617Y-107529550D01*
X177246207Y-107567290D01*
X177131550Y-107628575D01*
X177031052Y-107711052D01*
X176948575Y-107811550D01*
X176887290Y-107926207D01*
X176849550Y-108050617D01*
X176836807Y-108180000D01*
X173160000Y-108180000D01*
X173160000Y-104532419D01*
X173163193Y-104500000D01*
X173150450Y-104370617D01*
X173112710Y-104246207D01*
X173051425Y-104131550D01*
X172968948Y-104031052D01*
X172868450Y-103948575D01*
X172753793Y-103887290D01*
X172629383Y-103849550D01*
X172532419Y-103840000D01*
X172500000Y-103836807D01*
X172467581Y-103840000D01*
X158532419Y-103840000D01*
X158500000Y-103836807D01*
X158467581Y-103840000D01*
X158370617Y-103849550D01*
X158246207Y-103887290D01*
X158131550Y-103948575D01*
X158031052Y-104031052D01*
X157948575Y-104131550D01*
X157887290Y-104246207D01*
X157849550Y-104370617D01*
X157836807Y-104500000D01*
X154160000Y-104500000D01*
X154160000Y-103532419D01*
X154163193Y-103500000D01*
X154150450Y-103370617D01*
X154112710Y-103246207D01*
X154051425Y-103131550D01*
X153968948Y-103031052D01*
X153868450Y-102948575D01*
X153753793Y-102887290D01*
X153629383Y-102849550D01*
X153532419Y-102840000D01*
X153500000Y-102836807D01*
X153467581Y-102840000D01*
X139532419Y-102840000D01*
X139500000Y-102836807D01*
X139467581Y-102840000D01*
X139370617Y-102849550D01*
X139246207Y-102887290D01*
X139131550Y-102948575D01*
X139031052Y-103031052D01*
X138948575Y-103131550D01*
X138887290Y-103246207D01*
X138849550Y-103370617D01*
X138836807Y-103500000D01*
X135160000Y-103500000D01*
X135160000Y-96532419D01*
X135163193Y-96500000D01*
X135150450Y-96370617D01*
X135112710Y-96246207D01*
X135051425Y-96131550D01*
X134968948Y-96031052D01*
X134868450Y-95948575D01*
X134753793Y-95887290D01*
X134629383Y-95849550D01*
X134532419Y-95840000D01*
X134500000Y-95836807D01*
X134467581Y-95840000D01*
X120532419Y-95840000D01*
X120500000Y-95836807D01*
X120467581Y-95840000D01*
X120370617Y-95849550D01*
X120246207Y-95887290D01*
X120131550Y-95948575D01*
X120031052Y-96031052D01*
X119948575Y-96131550D01*
X119887290Y-96246207D01*
X119849550Y-96370617D01*
X119836807Y-96500000D01*
X116160000Y-96500000D01*
X116160000Y-84532419D01*
X116163193Y-84500000D01*
X116150450Y-84370617D01*
X116112710Y-84246207D01*
X116051425Y-84131550D01*
X115968948Y-84031052D01*
X115868450Y-83948575D01*
X115753793Y-83887290D01*
X115629383Y-83849550D01*
X115532419Y-83840000D01*
X115500000Y-83836807D01*
X115467581Y-83840000D01*
X101532419Y-83840000D01*
X101500000Y-83836807D01*
X101467581Y-83840000D01*
X101370617Y-83849550D01*
X101246207Y-83887290D01*
X101131550Y-83948575D01*
X101031052Y-84031052D01*
X100948575Y-84131550D01*
X100887290Y-84246207D01*
X100849550Y-84370617D01*
X100836807Y-84500000D01*
X97160000Y-84500000D01*
X97160000Y-81552419D01*
X97163193Y-81520000D01*
X97150450Y-81390617D01*
X97112710Y-81266207D01*
X97051425Y-81151550D01*
X96968948Y-81051052D01*
X96868450Y-80968575D01*
X96753793Y-80907290D01*
X96629383Y-80869550D01*
X96532419Y-80860000D01*
X96500000Y-80856807D01*
X96467581Y-80860000D01*
X82532419Y-80860000D01*
X82500000Y-80856807D01*
X82467581Y-80860000D01*
X82370617Y-80869550D01*
X82246207Y-80907290D01*
X82131550Y-80968575D01*
X82031052Y-81051052D01*
X81948575Y-81151550D01*
X81887290Y-81266207D01*
X81849550Y-81390617D01*
X81836807Y-81520000D01*
X80660000Y-81520000D01*
X80660000Y-64520000D01*
X81836807Y-64520000D01*
X81840000Y-64552419D01*
X81840001Y-78487571D01*
X81836807Y-78520000D01*
X81849550Y-78649383D01*
X81887290Y-78773793D01*
X81948575Y-78888450D01*
X82031052Y-78988948D01*
X82131550Y-79071425D01*
X82246207Y-79132710D01*
X82370617Y-79170450D01*
X82467581Y-79180000D01*
X82500000Y-79183193D01*
X82532419Y-79180000D01*
X96467581Y-79180000D01*
X96500000Y-79183193D01*
X96532419Y-79180000D01*
X96629383Y-79170450D01*
X96753793Y-79132710D01*
X96868450Y-79071425D01*
X96968948Y-78988948D01*
X97051425Y-78888450D01*
X97112710Y-78773793D01*
X97150450Y-78649383D01*
X97163193Y-78520000D01*
X97160000Y-78487581D01*
X97160000Y-67500000D01*
X100836807Y-67500000D01*
X100840000Y-67532419D01*
X100840001Y-81467571D01*
X100836807Y-81500000D01*
X100849550Y-81629383D01*
X100887290Y-81753793D01*
X100948575Y-81868450D01*
X101031052Y-81968948D01*
X101131550Y-82051425D01*
X101246207Y-82112710D01*
X101370617Y-82150450D01*
X101467581Y-82160000D01*
X101500000Y-82163193D01*
X101532419Y-82160000D01*
X115467581Y-82160000D01*
X115500000Y-82163193D01*
X115532419Y-82160000D01*
X115629383Y-82150450D01*
X115753793Y-82112710D01*
X115868450Y-82051425D01*
X115968948Y-81968948D01*
X116051425Y-81868450D01*
X116112710Y-81753793D01*
X116150450Y-81629383D01*
X116163193Y-81500000D01*
X116160000Y-81467581D01*
X116160000Y-79500000D01*
X119836807Y-79500000D01*
X119840000Y-79532419D01*
X119840001Y-93467571D01*
X119836807Y-93500000D01*
X119849550Y-93629383D01*
X119887290Y-93753793D01*
X119948575Y-93868450D01*
X120031052Y-93968948D01*
X120131550Y-94051425D01*
X120246207Y-94112710D01*
X120370617Y-94150450D01*
X120467581Y-94160000D01*
X120500000Y-94163193D01*
X120532419Y-94160000D01*
X134467581Y-94160000D01*
X134500000Y-94163193D01*
X134532419Y-94160000D01*
X134629383Y-94150450D01*
X134753793Y-94112710D01*
X134868450Y-94051425D01*
X134968948Y-93968948D01*
X135051425Y-93868450D01*
X135112710Y-93753793D01*
X135150450Y-93629383D01*
X135163193Y-93500000D01*
X135160000Y-93467581D01*
X135160000Y-86500000D01*
X138836807Y-86500000D01*
X138840000Y-86532419D01*
X138840001Y-100467571D01*
X138836807Y-100500000D01*
X138849550Y-100629383D01*
X138887290Y-100753793D01*
X138948575Y-100868450D01*
X139031052Y-100968948D01*
X139131550Y-101051425D01*
X139246207Y-101112710D01*
X139370617Y-101150450D01*
X139467581Y-101160000D01*
X139500000Y-101163193D01*
X139532419Y-101160000D01*
X153467581Y-101160000D01*
X153500000Y-101163193D01*
X153532419Y-101160000D01*
X153629383Y-101150450D01*
X153753793Y-101112710D01*
X153868450Y-101051425D01*
X153968948Y-100968948D01*
X154051425Y-100868450D01*
X154112710Y-100753793D01*
X154150450Y-100629383D01*
X154163193Y-100500000D01*
X154160000Y-100467581D01*
X154160000Y-87500000D01*
X157836807Y-87500000D01*
X157840000Y-87532419D01*
X157840001Y-101467571D01*
X157836807Y-101500000D01*
X157849550Y-101629383D01*
X157887290Y-101753793D01*
X157948575Y-101868450D01*
X158031052Y-101968948D01*
X158131550Y-102051425D01*
X158246207Y-102112710D01*
X158370617Y-102150450D01*
X158467581Y-102160000D01*
X158500000Y-102163193D01*
X158532419Y-102160000D01*
X172467581Y-102160000D01*
X172500000Y-102163193D01*
X172532419Y-102160000D01*
X172629383Y-102150450D01*
X172753793Y-102112710D01*
X172868450Y-102051425D01*
X172968948Y-101968948D01*
X173051425Y-101868450D01*
X173112710Y-101753793D01*
X173150450Y-101629383D01*
X173163193Y-101500000D01*
X173160000Y-101467581D01*
X173160000Y-87532419D01*
X173163193Y-87500000D01*
X173150450Y-87370617D01*
X173112710Y-87246207D01*
X173051425Y-87131550D01*
X172968948Y-87031052D01*
X172868450Y-86948575D01*
X172753793Y-86887290D01*
X172629383Y-86849550D01*
X172532419Y-86840000D01*
X172500000Y-86836807D01*
X172467581Y-86840000D01*
X158532419Y-86840000D01*
X158500000Y-86836807D01*
X158467581Y-86840000D01*
X158370617Y-86849550D01*
X158246207Y-86887290D01*
X158131550Y-86948575D01*
X158031052Y-87031052D01*
X157948575Y-87131550D01*
X157887290Y-87246207D01*
X157849550Y-87370617D01*
X157836807Y-87500000D01*
X154160000Y-87500000D01*
X154160000Y-86532419D01*
X154163193Y-86500000D01*
X154150450Y-86370617D01*
X154112710Y-86246207D01*
X154051425Y-86131550D01*
X153968948Y-86031052D01*
X153868450Y-85948575D01*
X153753793Y-85887290D01*
X153629383Y-85849550D01*
X153532419Y-85840000D01*
X153500000Y-85836807D01*
X153467581Y-85840000D01*
X139532419Y-85840000D01*
X139500000Y-85836807D01*
X139467581Y-85840000D01*
X139370617Y-85849550D01*
X139246207Y-85887290D01*
X139131550Y-85948575D01*
X139031052Y-86031052D01*
X138948575Y-86131550D01*
X138887290Y-86246207D01*
X138849550Y-86370617D01*
X138836807Y-86500000D01*
X135160000Y-86500000D01*
X135160000Y-79532419D01*
X135163193Y-79500000D01*
X135150450Y-79370617D01*
X135112710Y-79246207D01*
X135051425Y-79131550D01*
X134968948Y-79031052D01*
X134868450Y-78948575D01*
X134753793Y-78887290D01*
X134629383Y-78849550D01*
X134532419Y-78840000D01*
X134500000Y-78836807D01*
X134467581Y-78840000D01*
X120532419Y-78840000D01*
X120500000Y-78836807D01*
X120467581Y-78840000D01*
X120370617Y-78849550D01*
X120246207Y-78887290D01*
X120131550Y-78948575D01*
X120031052Y-79031052D01*
X119948575Y-79131550D01*
X119887290Y-79246207D01*
X119849550Y-79370617D01*
X119836807Y-79500000D01*
X116160000Y-79500000D01*
X116160000Y-67532419D01*
X116163193Y-67500000D01*
X116150450Y-67370617D01*
X116112710Y-67246207D01*
X116051425Y-67131550D01*
X115968948Y-67031052D01*
X115868450Y-66948575D01*
X115753793Y-66887290D01*
X115629383Y-66849550D01*
X115532419Y-66840000D01*
X115500000Y-66836807D01*
X115467581Y-66840000D01*
X101532419Y-66840000D01*
X101500000Y-66836807D01*
X101467581Y-66840000D01*
X101370617Y-66849550D01*
X101246207Y-66887290D01*
X101131550Y-66948575D01*
X101031052Y-67031052D01*
X100948575Y-67131550D01*
X100887290Y-67246207D01*
X100849550Y-67370617D01*
X100836807Y-67500000D01*
X97160000Y-67500000D01*
X97160000Y-64552419D01*
X97163193Y-64520000D01*
X97150450Y-64390617D01*
X97112710Y-64266207D01*
X97051425Y-64151550D01*
X96968948Y-64051052D01*
X96868450Y-63968575D01*
X96753793Y-63907290D01*
X96629383Y-63869550D01*
X96532419Y-63860000D01*
X96500000Y-63856807D01*
X96467581Y-63860000D01*
X82532419Y-63860000D01*
X82500000Y-63856807D01*
X82467581Y-63860000D01*
X82370617Y-63869550D01*
X82246207Y-63907290D01*
X82131550Y-63968575D01*
X82031052Y-64051052D01*
X81948575Y-64151550D01*
X81887290Y-64266207D01*
X81849550Y-64390617D01*
X81836807Y-64520000D01*
X80660000Y-64520000D01*
X80660000Y-63230626D01*
X99265000Y-63230626D01*
X99265000Y-63769374D01*
X99370105Y-64297770D01*
X99576275Y-64795508D01*
X99875587Y-65243461D01*
X100256539Y-65624413D01*
X100704492Y-65923725D01*
X101202230Y-66129895D01*
X101730626Y-66235000D01*
X102269374Y-66235000D01*
X102797770Y-66129895D01*
X103295508Y-65923725D01*
X103743461Y-65624413D01*
X104124413Y-65243461D01*
X104423725Y-64795508D01*
X104629895Y-64297770D01*
X104735000Y-63769374D01*
X104735000Y-63230626D01*
X104629895Y-62702230D01*
X104546129Y-62500000D01*
X119836807Y-62500000D01*
X119840000Y-62532419D01*
X119840001Y-76467571D01*
X119836807Y-76500000D01*
X119849550Y-76629383D01*
X119887290Y-76753793D01*
X119948575Y-76868450D01*
X120031052Y-76968948D01*
X120131550Y-77051425D01*
X120246207Y-77112710D01*
X120370617Y-77150450D01*
X120467581Y-77160000D01*
X120500000Y-77163193D01*
X120532419Y-77160000D01*
X134467581Y-77160000D01*
X134500000Y-77163193D01*
X134532419Y-77160000D01*
X134629383Y-77150450D01*
X134753793Y-77112710D01*
X134868450Y-77051425D01*
X134968948Y-76968948D01*
X135051425Y-76868450D01*
X135112710Y-76753793D01*
X135150450Y-76629383D01*
X135163193Y-76500000D01*
X135160000Y-76467581D01*
X135160000Y-69500000D01*
X138836807Y-69500000D01*
X138840000Y-69532419D01*
X138840001Y-83467571D01*
X138836807Y-83500000D01*
X138849550Y-83629383D01*
X138887290Y-83753793D01*
X138948575Y-83868450D01*
X139031052Y-83968948D01*
X139131550Y-84051425D01*
X139246207Y-84112710D01*
X139370617Y-84150450D01*
X139467581Y-84160000D01*
X139500000Y-84163193D01*
X139532419Y-84160000D01*
X153467581Y-84160000D01*
X153500000Y-84163193D01*
X153532419Y-84160000D01*
X153629383Y-84150450D01*
X153753793Y-84112710D01*
X153868450Y-84051425D01*
X153968948Y-83968948D01*
X154051425Y-83868450D01*
X154112710Y-83753793D01*
X154150450Y-83629383D01*
X154163193Y-83500000D01*
X154160000Y-83467581D01*
X154160000Y-70500000D01*
X157836807Y-70500000D01*
X157840000Y-70532419D01*
X157840001Y-84467571D01*
X157836807Y-84500000D01*
X157849550Y-84629383D01*
X157887290Y-84753793D01*
X157948575Y-84868450D01*
X158031052Y-84968948D01*
X158131550Y-85051425D01*
X158246207Y-85112710D01*
X158370617Y-85150450D01*
X158467581Y-85160000D01*
X158500000Y-85163193D01*
X158532419Y-85160000D01*
X172467581Y-85160000D01*
X172500000Y-85163193D01*
X172532419Y-85160000D01*
X172629383Y-85150450D01*
X172753793Y-85112710D01*
X172868450Y-85051425D01*
X172968948Y-84968948D01*
X173051425Y-84868450D01*
X173112710Y-84753793D01*
X173150450Y-84629383D01*
X173163193Y-84500000D01*
X173160000Y-84467581D01*
X173160000Y-70532419D01*
X173163193Y-70500000D01*
X173150450Y-70370617D01*
X173112710Y-70246207D01*
X173051425Y-70131550D01*
X172968948Y-70031052D01*
X172868450Y-69948575D01*
X172753793Y-69887290D01*
X172629383Y-69849550D01*
X172532419Y-69840000D01*
X172500000Y-69836807D01*
X172467581Y-69840000D01*
X158532419Y-69840000D01*
X158500000Y-69836807D01*
X158467581Y-69840000D01*
X158370617Y-69849550D01*
X158246207Y-69887290D01*
X158131550Y-69948575D01*
X158031052Y-70031052D01*
X157948575Y-70131550D01*
X157887290Y-70246207D01*
X157849550Y-70370617D01*
X157836807Y-70500000D01*
X154160000Y-70500000D01*
X154160000Y-69532419D01*
X154163193Y-69500000D01*
X154150450Y-69370617D01*
X154112710Y-69246207D01*
X154051425Y-69131550D01*
X153968948Y-69031052D01*
X153868450Y-68948575D01*
X153753793Y-68887290D01*
X153629383Y-68849550D01*
X153532419Y-68840000D01*
X153500000Y-68836807D01*
X153467581Y-68840000D01*
X139532419Y-68840000D01*
X139500000Y-68836807D01*
X139467581Y-68840000D01*
X139370617Y-68849550D01*
X139246207Y-68887290D01*
X139131550Y-68948575D01*
X139031052Y-69031052D01*
X138948575Y-69131550D01*
X138887290Y-69246207D01*
X138849550Y-69370617D01*
X138836807Y-69500000D01*
X135160000Y-69500000D01*
X135160000Y-65730626D01*
X154265000Y-65730626D01*
X154265000Y-66269374D01*
X154370105Y-66797770D01*
X154576275Y-67295508D01*
X154875587Y-67743461D01*
X155256539Y-68124413D01*
X155704492Y-68423725D01*
X156202230Y-68629895D01*
X156730626Y-68735000D01*
X157269374Y-68735000D01*
X157797770Y-68629895D01*
X158295508Y-68423725D01*
X158743461Y-68124413D01*
X159124413Y-67743461D01*
X159423725Y-67295508D01*
X159629895Y-66797770D01*
X159735000Y-66269374D01*
X159735000Y-65730626D01*
X159629895Y-65202230D01*
X159423725Y-64704492D01*
X159124413Y-64256539D01*
X158743461Y-63875587D01*
X158295508Y-63576275D01*
X157797770Y-63370105D01*
X157269374Y-63265000D01*
X156730626Y-63265000D01*
X156202230Y-63370105D01*
X155704492Y-63576275D01*
X155256539Y-63875587D01*
X154875587Y-64256539D01*
X154576275Y-64704492D01*
X154370105Y-65202230D01*
X154265000Y-65730626D01*
X135160000Y-65730626D01*
X135160000Y-62532419D01*
X135163193Y-62500000D01*
X135150450Y-62370617D01*
X135112710Y-62246207D01*
X135051425Y-62131550D01*
X134968948Y-62031052D01*
X134868450Y-61948575D01*
X134753793Y-61887290D01*
X134629383Y-61849550D01*
X134532419Y-61840000D01*
X134500000Y-61836807D01*
X134467581Y-61840000D01*
X120532419Y-61840000D01*
X120500000Y-61836807D01*
X120467581Y-61840000D01*
X120370617Y-61849550D01*
X120246207Y-61887290D01*
X120131550Y-61948575D01*
X120031052Y-62031052D01*
X119948575Y-62131550D01*
X119887290Y-62246207D01*
X119849550Y-62370617D01*
X119836807Y-62500000D01*
X104546129Y-62500000D01*
X104423725Y-62204492D01*
X104124413Y-61756539D01*
X103743461Y-61375587D01*
X103295508Y-61076275D01*
X102797770Y-60870105D01*
X102269374Y-60765000D01*
X101730626Y-60765000D01*
X101202230Y-60870105D01*
X100704492Y-61076275D01*
X100256539Y-61375587D01*
X99875587Y-61756539D01*
X99576275Y-62204492D01*
X99370105Y-62702230D01*
X99265000Y-63230626D01*
X80660000Y-63230626D01*
X80660000Y-62032279D01*
X80688625Y-61740341D01*
X80764035Y-61490571D01*
X80886522Y-61260208D01*
X81051422Y-61058020D01*
X81252450Y-60891714D01*
X81481954Y-60767622D01*
X81731195Y-60690469D01*
X82021088Y-60660000D01*
X173067721Y-60660000D01*
X173359659Y-60688625D01*
X173359659Y-60688625D01*
G37*
X173359659Y-60688625D02*
X173609429Y-60764035D01*
X173839792Y-60886522D01*
X174041980Y-61051422D01*
X174208286Y-61252450D01*
X174332378Y-61481954D01*
X174409531Y-61731195D01*
X174440000Y-62021089D01*
X174440001Y-104032419D01*
X174442852Y-104061364D01*
X174442765Y-104073781D01*
X174443665Y-104082952D01*
X174484466Y-104471145D01*
X174496487Y-104529708D01*
X174507702Y-104588501D01*
X174510366Y-104597323D01*
X174625790Y-104970198D01*
X174648975Y-105025353D01*
X174671379Y-105080806D01*
X174675706Y-105088943D01*
X174861357Y-105432298D01*
X174894780Y-105481849D01*
X174927562Y-105531946D01*
X174933387Y-105539087D01*
X175182194Y-105839841D01*
X175224629Y-105881981D01*
X175266492Y-105924730D01*
X175273592Y-105930604D01*
X175576077Y-106177305D01*
X175625904Y-106210409D01*
X175675259Y-106244204D01*
X175683365Y-106248587D01*
X176028007Y-106431837D01*
X176083311Y-106454631D01*
X176138295Y-106478198D01*
X176147098Y-106480923D01*
X176520770Y-106593741D01*
X176579458Y-106605361D01*
X176637961Y-106617797D01*
X176647126Y-106618760D01*
X177035595Y-106656850D01*
X177035598Y-106656850D01*
X177067581Y-106660000D01*
X195067721Y-106660000D01*
X195359659Y-106688625D01*
X195609429Y-106764035D01*
X195839792Y-106886522D01*
X196041980Y-107051422D01*
X196208286Y-107252450D01*
X196332378Y-107481954D01*
X196409531Y-107731195D01*
X196440001Y-108021101D01*
X196440923Y-128907729D01*
X196409956Y-129223559D01*
X196397763Y-129277716D01*
X192662342Y-144268824D01*
X192564242Y-144546951D01*
X192430999Y-144771997D01*
X192256574Y-144966884D01*
X192047623Y-145124176D01*
X191812099Y-145237888D01*
X191558976Y-145303687D01*
X191278095Y-145320233D01*
X191183686Y-145312951D01*
X149255269Y-140419091D01*
X176608783Y-140419091D01*
X176615305Y-140548935D01*
X176647031Y-140675012D01*
X176702745Y-140792478D01*
X176780305Y-140896818D01*
X176876730Y-140984020D01*
X176988315Y-141050737D01*
X177110772Y-141094402D01*
X177142999Y-141099147D01*
X190664234Y-144470370D01*
X190694912Y-144481309D01*
X190727134Y-144486053D01*
X190727139Y-144486054D01*
X190823533Y-144500245D01*
X190823534Y-144500245D01*
X190953378Y-144493723D01*
X191079455Y-144461997D01*
X191196921Y-144406283D01*
X191301261Y-144328723D01*
X191388463Y-144232298D01*
X191455180Y-144120713D01*
X191487904Y-144028940D01*
X191487904Y-144028939D01*
X191498845Y-143998256D01*
X191503590Y-143966029D01*
X194874813Y-130444794D01*
X194885752Y-130414116D01*
X194894268Y-130356275D01*
X194904688Y-130285495D01*
X194904688Y-130285494D01*
X194898167Y-130155649D01*
X194866440Y-130029572D01*
X194810726Y-129912106D01*
X194733166Y-129807766D01*
X194636741Y-129720564D01*
X194525156Y-129653847D01*
X194433383Y-129621123D01*
X194433373Y-129621120D01*
X194402699Y-129610183D01*
X194370481Y-129605440D01*
X180849239Y-126234216D01*
X180818559Y-126223276D01*
X180786334Y-126218532D01*
X180786331Y-126218531D01*
X180689937Y-126204340D01*
X180560092Y-126210861D01*
X180434015Y-126242588D01*
X180316549Y-126298302D01*
X180212209Y-126375862D01*
X180125007Y-126472287D01*
X180058290Y-126583872D01*
X180025566Y-126675645D01*
X180025563Y-126675655D01*
X180014626Y-126706329D01*
X180009883Y-126738547D01*
X176638659Y-140259789D01*
X176627719Y-140290469D01*
X176622975Y-140322694D01*
X176622974Y-140322697D01*
X176608783Y-140419091D01*
X149255269Y-140419091D01*
X99756276Y-134641598D01*
X99874413Y-134523461D01*
X100173725Y-134075508D01*
X100379895Y-133577770D01*
X100485000Y-133049374D01*
X100485000Y-132510626D01*
X100379895Y-131982230D01*
X100173725Y-131484492D01*
X99874413Y-131036539D01*
X99493461Y-130655587D01*
X99045508Y-130356275D01*
X98547770Y-130150105D01*
X98019374Y-130045000D01*
X97480626Y-130045000D01*
X96952230Y-130150105D01*
X96454492Y-130356275D01*
X96006539Y-130655587D01*
X95625587Y-131036539D01*
X95326275Y-131484492D01*
X95120105Y-131982230D01*
X95015000Y-132510626D01*
X95015000Y-133049374D01*
X95120105Y-133577770D01*
X95326275Y-134075508D01*
X95361801Y-134128677D01*
X81878583Y-132554924D01*
X81591492Y-132492890D01*
X81352038Y-132389304D01*
X81137254Y-132241175D01*
X80955340Y-132054155D01*
X80813214Y-131835360D01*
X80716292Y-131593124D01*
X80664960Y-131319023D01*
X80660000Y-131205580D01*
X80660000Y-115520000D01*
X81836807Y-115520000D01*
X81840000Y-115552419D01*
X81840001Y-129487571D01*
X81836807Y-129520000D01*
X81849550Y-129649383D01*
X81887290Y-129773793D01*
X81948575Y-129888450D01*
X82031052Y-129988948D01*
X82131550Y-130071425D01*
X82246207Y-130132710D01*
X82370617Y-130170450D01*
X82467581Y-130180000D01*
X82500000Y-130183193D01*
X82532419Y-130180000D01*
X96467581Y-130180000D01*
X96500000Y-130183193D01*
X96532419Y-130180000D01*
X96629383Y-130170450D01*
X96753793Y-130132710D01*
X96868450Y-130071425D01*
X96968948Y-129988948D01*
X97051425Y-129888450D01*
X97112710Y-129773793D01*
X97150450Y-129649383D01*
X97163193Y-129520000D01*
X97160000Y-129487581D01*
X97160000Y-118500000D01*
X100836807Y-118500000D01*
X100840000Y-118532419D01*
X100840001Y-132467571D01*
X100836807Y-132500000D01*
X100849550Y-132629383D01*
X100887290Y-132753793D01*
X100948575Y-132868450D01*
X101031052Y-132968948D01*
X101131550Y-133051425D01*
X101246207Y-133112710D01*
X101370617Y-133150450D01*
X101467581Y-133160000D01*
X101500000Y-133163193D01*
X101532419Y-133160000D01*
X115467581Y-133160000D01*
X115500000Y-133163193D01*
X115532419Y-133160000D01*
X115629383Y-133150450D01*
X115753793Y-133112710D01*
X115868450Y-133051425D01*
X115968948Y-132968948D01*
X116051425Y-132868450D01*
X116112710Y-132753793D01*
X116150450Y-132629383D01*
X116163193Y-132500000D01*
X116160000Y-132467581D01*
X116160000Y-121500000D01*
X119836807Y-121500000D01*
X119840000Y-121532419D01*
X119840001Y-135467571D01*
X119836807Y-135500000D01*
X119849550Y-135629383D01*
X119887290Y-135753793D01*
X119948575Y-135868450D01*
X120031052Y-135968948D01*
X120131550Y-136051425D01*
X120246207Y-136112710D01*
X120370617Y-136150450D01*
X120467581Y-136160000D01*
X120500000Y-136163193D01*
X120532419Y-136160000D01*
X134467581Y-136160000D01*
X134500000Y-136163193D01*
X134532419Y-136160000D01*
X134629383Y-136150450D01*
X134753793Y-136112710D01*
X134868450Y-136051425D01*
X134968948Y-135968948D01*
X135051425Y-135868450D01*
X135112710Y-135753793D01*
X135150450Y-135629383D01*
X135163193Y-135500000D01*
X135160000Y-135467581D01*
X135160000Y-121532419D01*
X135163193Y-121500000D01*
X138836807Y-121500000D01*
X138840000Y-121532419D01*
X138840001Y-135467571D01*
X138836807Y-135500000D01*
X138849550Y-135629383D01*
X138887290Y-135753793D01*
X138948575Y-135868450D01*
X139031052Y-135968948D01*
X139131550Y-136051425D01*
X139246207Y-136112710D01*
X139370617Y-136150450D01*
X139467581Y-136160000D01*
X139500000Y-136163193D01*
X139532419Y-136160000D01*
X153467581Y-136160000D01*
X153500000Y-136163193D01*
X153532419Y-136160000D01*
X153629383Y-136150450D01*
X153753793Y-136112710D01*
X153868450Y-136051425D01*
X153968948Y-135968948D01*
X154051425Y-135868450D01*
X154072462Y-135829091D01*
X158168783Y-135829091D01*
X158175305Y-135958935D01*
X158207031Y-136085012D01*
X158262745Y-136202478D01*
X158340305Y-136306818D01*
X158436730Y-136394020D01*
X158548315Y-136460737D01*
X158670772Y-136504402D01*
X158702999Y-136509147D01*
X172224234Y-139880370D01*
X172254912Y-139891309D01*
X172287134Y-139896053D01*
X172287139Y-139896054D01*
X172383533Y-139910245D01*
X172383534Y-139910245D01*
X172513378Y-139903723D01*
X172639455Y-139871997D01*
X172756921Y-139816283D01*
X172861261Y-139738723D01*
X172948463Y-139642298D01*
X173015180Y-139530713D01*
X173047904Y-139438940D01*
X173047904Y-139438939D01*
X173058845Y-139408256D01*
X173063590Y-139376029D01*
X176434813Y-125854794D01*
X176445752Y-125824116D01*
X176464688Y-125695494D01*
X176460426Y-125610626D01*
X190665000Y-125610626D01*
X190665000Y-126149374D01*
X190770105Y-126677770D01*
X190976275Y-127175508D01*
X191275587Y-127623461D01*
X191656539Y-128004413D01*
X192104492Y-128303725D01*
X192602230Y-128509895D01*
X193130626Y-128615000D01*
X193669374Y-128615000D01*
X194197770Y-128509895D01*
X194695508Y-128303725D01*
X195143461Y-128004413D01*
X195524413Y-127623461D01*
X195823725Y-127175508D01*
X196029895Y-126677770D01*
X196135000Y-126149374D01*
X196135000Y-125610626D01*
X196029895Y-125082230D01*
X195823725Y-124584492D01*
X195524413Y-124136539D01*
X195143461Y-123755587D01*
X194695508Y-123456275D01*
X194197770Y-123250105D01*
X193669374Y-123145000D01*
X193130626Y-123145000D01*
X192602230Y-123250105D01*
X192104492Y-123456275D01*
X191656539Y-123755587D01*
X191275587Y-124136539D01*
X190976275Y-124584492D01*
X190770105Y-125082230D01*
X190665000Y-125610626D01*
X176460426Y-125610626D01*
X176458167Y-125565649D01*
X176426440Y-125439572D01*
X176370726Y-125322106D01*
X176293166Y-125217766D01*
X176196741Y-125130564D01*
X176085156Y-125063847D01*
X175993383Y-125031123D01*
X175993373Y-125031120D01*
X175962699Y-125020183D01*
X175930481Y-125015440D01*
X162409239Y-121644216D01*
X162378559Y-121633276D01*
X162346334Y-121628532D01*
X162346331Y-121628531D01*
X162249937Y-121614340D01*
X162120092Y-121620861D01*
X161994015Y-121652588D01*
X161876549Y-121708302D01*
X161772209Y-121785862D01*
X161685007Y-121882287D01*
X161618290Y-121993872D01*
X161585566Y-122085645D01*
X161585563Y-122085655D01*
X161574626Y-122116329D01*
X161569883Y-122148547D01*
X158198659Y-135669789D01*
X158187719Y-135700469D01*
X158182975Y-135732694D01*
X158182974Y-135732697D01*
X158168783Y-135829091D01*
X154072462Y-135829091D01*
X154112710Y-135753793D01*
X154150450Y-135629383D01*
X154163193Y-135500000D01*
X154160000Y-135467581D01*
X154160000Y-121532419D01*
X154163193Y-121500000D01*
X154150450Y-121370617D01*
X154112710Y-121246207D01*
X154051425Y-121131550D01*
X153968948Y-121031052D01*
X153868450Y-120948575D01*
X153753793Y-120887290D01*
X153629383Y-120849550D01*
X153532419Y-120840000D01*
X153500000Y-120836807D01*
X153467581Y-120840000D01*
X139532419Y-120840000D01*
X139500000Y-120836807D01*
X139467581Y-120840000D01*
X139370617Y-120849550D01*
X139246207Y-120887290D01*
X139131550Y-120948575D01*
X139031052Y-121031052D01*
X138948575Y-121131550D01*
X138887290Y-121246207D01*
X138849550Y-121370617D01*
X138836807Y-121500000D01*
X135163193Y-121500000D01*
X135150450Y-121370617D01*
X135112710Y-121246207D01*
X135051425Y-121131550D01*
X134968948Y-121031052D01*
X134868450Y-120948575D01*
X134753793Y-120887290D01*
X134629383Y-120849550D01*
X134532419Y-120840000D01*
X134500000Y-120836807D01*
X134467581Y-120840000D01*
X120532419Y-120840000D01*
X120500000Y-120836807D01*
X120467581Y-120840000D01*
X120370617Y-120849550D01*
X120246207Y-120887290D01*
X120131550Y-120948575D01*
X120031052Y-121031052D01*
X119948575Y-121131550D01*
X119887290Y-121246207D01*
X119849550Y-121370617D01*
X119836807Y-121500000D01*
X116160000Y-121500000D01*
X116160000Y-118532419D01*
X116163193Y-118500000D01*
X116150450Y-118370617D01*
X116112710Y-118246207D01*
X116051425Y-118131550D01*
X115968948Y-118031052D01*
X115868450Y-117948575D01*
X115753793Y-117887290D01*
X115629383Y-117849550D01*
X115532419Y-117840000D01*
X115500000Y-117836807D01*
X115467581Y-117840000D01*
X101532419Y-117840000D01*
X101500000Y-117836807D01*
X101467581Y-117840000D01*
X101370617Y-117849550D01*
X101246207Y-117887290D01*
X101131550Y-117948575D01*
X101031052Y-118031052D01*
X100948575Y-118131550D01*
X100887290Y-118246207D01*
X100849550Y-118370617D01*
X100836807Y-118500000D01*
X97160000Y-118500000D01*
X97160000Y-115552419D01*
X97163193Y-115520000D01*
X97150450Y-115390617D01*
X97112710Y-115266207D01*
X97051425Y-115151550D01*
X96968948Y-115051052D01*
X96868450Y-114968575D01*
X96753793Y-114907290D01*
X96629383Y-114869550D01*
X96532419Y-114860000D01*
X96500000Y-114856807D01*
X96467581Y-114860000D01*
X82532419Y-114860000D01*
X82500000Y-114856807D01*
X82467581Y-114860000D01*
X82370617Y-114869550D01*
X82246207Y-114907290D01*
X82131550Y-114968575D01*
X82031052Y-115051052D01*
X81948575Y-115151550D01*
X81887290Y-115266207D01*
X81849550Y-115390617D01*
X81836807Y-115520000D01*
X80660000Y-115520000D01*
X80660000Y-98520000D01*
X81836807Y-98520000D01*
X81840000Y-98552419D01*
X81840001Y-112487571D01*
X81836807Y-112520000D01*
X81849550Y-112649383D01*
X81887290Y-112773793D01*
X81948575Y-112888450D01*
X82031052Y-112988948D01*
X82131550Y-113071425D01*
X82246207Y-113132710D01*
X82370617Y-113170450D01*
X82467581Y-113180000D01*
X82500000Y-113183193D01*
X82532419Y-113180000D01*
X96467581Y-113180000D01*
X96500000Y-113183193D01*
X96532419Y-113180000D01*
X96629383Y-113170450D01*
X96753793Y-113132710D01*
X96868450Y-113071425D01*
X96968948Y-112988948D01*
X97051425Y-112888450D01*
X97112710Y-112773793D01*
X97150450Y-112649383D01*
X97163193Y-112520000D01*
X97160000Y-112487581D01*
X97160000Y-101500000D01*
X100836807Y-101500000D01*
X100840000Y-101532419D01*
X100840001Y-115467571D01*
X100836807Y-115500000D01*
X100849550Y-115629383D01*
X100887290Y-115753793D01*
X100948575Y-115868450D01*
X101031052Y-115968948D01*
X101131550Y-116051425D01*
X101246207Y-116112710D01*
X101370617Y-116150450D01*
X101467581Y-116160000D01*
X101500000Y-116163193D01*
X101532419Y-116160000D01*
X115467581Y-116160000D01*
X115500000Y-116163193D01*
X115532419Y-116160000D01*
X115629383Y-116150450D01*
X115753793Y-116112710D01*
X115868450Y-116051425D01*
X115968948Y-115968948D01*
X116051425Y-115868450D01*
X116112710Y-115753793D01*
X116119737Y-115730626D01*
X131265000Y-115730626D01*
X131265000Y-116269374D01*
X131370105Y-116797770D01*
X131576275Y-117295508D01*
X131875587Y-117743461D01*
X132256539Y-118124413D01*
X132704492Y-118423725D01*
X133202230Y-118629895D01*
X133730626Y-118735000D01*
X134269374Y-118735000D01*
X134797770Y-118629895D01*
X135295508Y-118423725D01*
X135743461Y-118124413D01*
X136124413Y-117743461D01*
X136423725Y-117295508D01*
X136629895Y-116797770D01*
X136735000Y-116269374D01*
X136735000Y-115730626D01*
X136629895Y-115202230D01*
X136423725Y-114704492D01*
X136124413Y-114256539D01*
X135743461Y-113875587D01*
X135295508Y-113576275D01*
X134797770Y-113370105D01*
X134269374Y-113265000D01*
X133730626Y-113265000D01*
X133202230Y-113370105D01*
X132704492Y-113576275D01*
X132256539Y-113875587D01*
X131875587Y-114256539D01*
X131576275Y-114704492D01*
X131370105Y-115202230D01*
X131265000Y-115730626D01*
X116119737Y-115730626D01*
X116150450Y-115629383D01*
X116163193Y-115500000D01*
X116160000Y-115467581D01*
X116160000Y-101532419D01*
X116163193Y-101500000D01*
X116150450Y-101370617D01*
X116112710Y-101246207D01*
X116051425Y-101131550D01*
X115968948Y-101031052D01*
X115868450Y-100948575D01*
X115753793Y-100887290D01*
X115629383Y-100849550D01*
X115532419Y-100840000D01*
X115500000Y-100836807D01*
X115467581Y-100840000D01*
X101532419Y-100840000D01*
X101500000Y-100836807D01*
X101467581Y-100840000D01*
X101370617Y-100849550D01*
X101246207Y-100887290D01*
X101131550Y-100948575D01*
X101031052Y-101031052D01*
X100948575Y-101131550D01*
X100887290Y-101246207D01*
X100849550Y-101370617D01*
X100836807Y-101500000D01*
X97160000Y-101500000D01*
X97160000Y-98552419D01*
X97163193Y-98520000D01*
X97150450Y-98390617D01*
X97112710Y-98266207D01*
X97051425Y-98151550D01*
X96968948Y-98051052D01*
X96868450Y-97968575D01*
X96753793Y-97907290D01*
X96629383Y-97869550D01*
X96532419Y-97860000D01*
X96500000Y-97856807D01*
X96467581Y-97860000D01*
X82532419Y-97860000D01*
X82500000Y-97856807D01*
X82467581Y-97860000D01*
X82370617Y-97869550D01*
X82246207Y-97907290D01*
X82131550Y-97968575D01*
X82031052Y-98051052D01*
X81948575Y-98151550D01*
X81887290Y-98266207D01*
X81849550Y-98390617D01*
X81836807Y-98520000D01*
X80660000Y-98520000D01*
X80660000Y-81520000D01*
X81836807Y-81520000D01*
X81840000Y-81552419D01*
X81840001Y-95487571D01*
X81836807Y-95520000D01*
X81849550Y-95649383D01*
X81887290Y-95773793D01*
X81948575Y-95888450D01*
X82031052Y-95988948D01*
X82131550Y-96071425D01*
X82246207Y-96132710D01*
X82370617Y-96170450D01*
X82467581Y-96180000D01*
X82500000Y-96183193D01*
X82532419Y-96180000D01*
X96467581Y-96180000D01*
X96500000Y-96183193D01*
X96532419Y-96180000D01*
X96629383Y-96170450D01*
X96753793Y-96132710D01*
X96868450Y-96071425D01*
X96968948Y-95988948D01*
X97051425Y-95888450D01*
X97112710Y-95773793D01*
X97150450Y-95649383D01*
X97163193Y-95520000D01*
X97160000Y-95487581D01*
X97160000Y-84500000D01*
X100836807Y-84500000D01*
X100840000Y-84532419D01*
X100840001Y-98467571D01*
X100836807Y-98500000D01*
X100849550Y-98629383D01*
X100887290Y-98753793D01*
X100948575Y-98868450D01*
X101031052Y-98968948D01*
X101131550Y-99051425D01*
X101246207Y-99112710D01*
X101370617Y-99150450D01*
X101467581Y-99160000D01*
X101500000Y-99163193D01*
X101532419Y-99160000D01*
X115467581Y-99160000D01*
X115500000Y-99163193D01*
X115532419Y-99160000D01*
X115629383Y-99150450D01*
X115753793Y-99112710D01*
X115868450Y-99051425D01*
X115968948Y-98968948D01*
X116051425Y-98868450D01*
X116112710Y-98753793D01*
X116150450Y-98629383D01*
X116163193Y-98500000D01*
X116160000Y-98467581D01*
X116160000Y-96500000D01*
X119836807Y-96500000D01*
X119840000Y-96532419D01*
X119840001Y-110467571D01*
X119836807Y-110500000D01*
X119849550Y-110629383D01*
X119887290Y-110753793D01*
X119948575Y-110868450D01*
X120031052Y-110968948D01*
X120131550Y-111051425D01*
X120246207Y-111112710D01*
X120370617Y-111150450D01*
X120467581Y-111160000D01*
X120500000Y-111163193D01*
X120532419Y-111160000D01*
X134467581Y-111160000D01*
X134500000Y-111163193D01*
X134532419Y-111160000D01*
X134629383Y-111150450D01*
X134753793Y-111112710D01*
X134868450Y-111051425D01*
X134968948Y-110968948D01*
X135051425Y-110868450D01*
X135112710Y-110753793D01*
X135150450Y-110629383D01*
X135163193Y-110500000D01*
X135160000Y-110467581D01*
X135160000Y-103500000D01*
X138836807Y-103500000D01*
X138840000Y-103532419D01*
X138840001Y-117467571D01*
X138836807Y-117500000D01*
X138849550Y-117629383D01*
X138887290Y-117753793D01*
X138948575Y-117868450D01*
X139031052Y-117968948D01*
X139131550Y-118051425D01*
X139246207Y-118112710D01*
X139370617Y-118150450D01*
X139467581Y-118160000D01*
X139500000Y-118163193D01*
X139532419Y-118160000D01*
X153467581Y-118160000D01*
X153500000Y-118163193D01*
X153532419Y-118160000D01*
X153629383Y-118150450D01*
X153753793Y-118112710D01*
X153868450Y-118051425D01*
X153968948Y-117968948D01*
X154051425Y-117868450D01*
X154112710Y-117753793D01*
X154150450Y-117629383D01*
X154163193Y-117500000D01*
X154160000Y-117467581D01*
X154160000Y-104500000D01*
X157836807Y-104500000D01*
X157840000Y-104532419D01*
X157840001Y-118467571D01*
X157836807Y-118500000D01*
X157849550Y-118629383D01*
X157887290Y-118753793D01*
X157948575Y-118868450D01*
X158031052Y-118968948D01*
X158131550Y-119051425D01*
X158246207Y-119112710D01*
X158370617Y-119150450D01*
X158467581Y-119160000D01*
X158500000Y-119163193D01*
X158532419Y-119160000D01*
X172467581Y-119160000D01*
X172500000Y-119163193D01*
X172532419Y-119160000D01*
X172629383Y-119150450D01*
X172753793Y-119112710D01*
X172868450Y-119051425D01*
X172968948Y-118968948D01*
X173051425Y-118868450D01*
X173112710Y-118753793D01*
X173150450Y-118629383D01*
X173163193Y-118500000D01*
X173160000Y-118467581D01*
X173160000Y-108180000D01*
X176836807Y-108180000D01*
X176840000Y-108212419D01*
X176840001Y-122147571D01*
X176836807Y-122180000D01*
X176849550Y-122309383D01*
X176887290Y-122433793D01*
X176948575Y-122548450D01*
X177031052Y-122648948D01*
X177131550Y-122731425D01*
X177246207Y-122792710D01*
X177370617Y-122830450D01*
X177467581Y-122840000D01*
X177500000Y-122843193D01*
X177532419Y-122840000D01*
X191467581Y-122840000D01*
X191500000Y-122843193D01*
X191532419Y-122840000D01*
X191629383Y-122830450D01*
X191753793Y-122792710D01*
X191868450Y-122731425D01*
X191968948Y-122648948D01*
X192051425Y-122548450D01*
X192112710Y-122433793D01*
X192150450Y-122309383D01*
X192163193Y-122180000D01*
X192160000Y-122147581D01*
X192160000Y-108212419D01*
X192163193Y-108180000D01*
X192150450Y-108050617D01*
X192112710Y-107926207D01*
X192051425Y-107811550D01*
X191968948Y-107711052D01*
X191868450Y-107628575D01*
X191753793Y-107567290D01*
X191629383Y-107529550D01*
X191532419Y-107520000D01*
X191500000Y-107516807D01*
X191467581Y-107520000D01*
X177532419Y-107520000D01*
X177500000Y-107516807D01*
X177467581Y-107520000D01*
X177370617Y-107529550D01*
X177246207Y-107567290D01*
X177131550Y-107628575D01*
X177031052Y-107711052D01*
X176948575Y-107811550D01*
X176887290Y-107926207D01*
X176849550Y-108050617D01*
X176836807Y-108180000D01*
X173160000Y-108180000D01*
X173160000Y-104532419D01*
X173163193Y-104500000D01*
X173150450Y-104370617D01*
X173112710Y-104246207D01*
X173051425Y-104131550D01*
X172968948Y-104031052D01*
X172868450Y-103948575D01*
X172753793Y-103887290D01*
X172629383Y-103849550D01*
X172532419Y-103840000D01*
X172500000Y-103836807D01*
X172467581Y-103840000D01*
X158532419Y-103840000D01*
X158500000Y-103836807D01*
X158467581Y-103840000D01*
X158370617Y-103849550D01*
X158246207Y-103887290D01*
X158131550Y-103948575D01*
X158031052Y-104031052D01*
X157948575Y-104131550D01*
X157887290Y-104246207D01*
X157849550Y-104370617D01*
X157836807Y-104500000D01*
X154160000Y-104500000D01*
X154160000Y-103532419D01*
X154163193Y-103500000D01*
X154150450Y-103370617D01*
X154112710Y-103246207D01*
X154051425Y-103131550D01*
X153968948Y-103031052D01*
X153868450Y-102948575D01*
X153753793Y-102887290D01*
X153629383Y-102849550D01*
X153532419Y-102840000D01*
X153500000Y-102836807D01*
X153467581Y-102840000D01*
X139532419Y-102840000D01*
X139500000Y-102836807D01*
X139467581Y-102840000D01*
X139370617Y-102849550D01*
X139246207Y-102887290D01*
X139131550Y-102948575D01*
X139031052Y-103031052D01*
X138948575Y-103131550D01*
X138887290Y-103246207D01*
X138849550Y-103370617D01*
X138836807Y-103500000D01*
X135160000Y-103500000D01*
X135160000Y-96532419D01*
X135163193Y-96500000D01*
X135150450Y-96370617D01*
X135112710Y-96246207D01*
X135051425Y-96131550D01*
X134968948Y-96031052D01*
X134868450Y-95948575D01*
X134753793Y-95887290D01*
X134629383Y-95849550D01*
X134532419Y-95840000D01*
X134500000Y-95836807D01*
X134467581Y-95840000D01*
X120532419Y-95840000D01*
X120500000Y-95836807D01*
X120467581Y-95840000D01*
X120370617Y-95849550D01*
X120246207Y-95887290D01*
X120131550Y-95948575D01*
X120031052Y-96031052D01*
X119948575Y-96131550D01*
X119887290Y-96246207D01*
X119849550Y-96370617D01*
X119836807Y-96500000D01*
X116160000Y-96500000D01*
X116160000Y-84532419D01*
X116163193Y-84500000D01*
X116150450Y-84370617D01*
X116112710Y-84246207D01*
X116051425Y-84131550D01*
X115968948Y-84031052D01*
X115868450Y-83948575D01*
X115753793Y-83887290D01*
X115629383Y-83849550D01*
X115532419Y-83840000D01*
X115500000Y-83836807D01*
X115467581Y-83840000D01*
X101532419Y-83840000D01*
X101500000Y-83836807D01*
X101467581Y-83840000D01*
X101370617Y-83849550D01*
X101246207Y-83887290D01*
X101131550Y-83948575D01*
X101031052Y-84031052D01*
X100948575Y-84131550D01*
X100887290Y-84246207D01*
X100849550Y-84370617D01*
X100836807Y-84500000D01*
X97160000Y-84500000D01*
X97160000Y-81552419D01*
X97163193Y-81520000D01*
X97150450Y-81390617D01*
X97112710Y-81266207D01*
X97051425Y-81151550D01*
X96968948Y-81051052D01*
X96868450Y-80968575D01*
X96753793Y-80907290D01*
X96629383Y-80869550D01*
X96532419Y-80860000D01*
X96500000Y-80856807D01*
X96467581Y-80860000D01*
X82532419Y-80860000D01*
X82500000Y-80856807D01*
X82467581Y-80860000D01*
X82370617Y-80869550D01*
X82246207Y-80907290D01*
X82131550Y-80968575D01*
X82031052Y-81051052D01*
X81948575Y-81151550D01*
X81887290Y-81266207D01*
X81849550Y-81390617D01*
X81836807Y-81520000D01*
X80660000Y-81520000D01*
X80660000Y-64520000D01*
X81836807Y-64520000D01*
X81840000Y-64552419D01*
X81840001Y-78487571D01*
X81836807Y-78520000D01*
X81849550Y-78649383D01*
X81887290Y-78773793D01*
X81948575Y-78888450D01*
X82031052Y-78988948D01*
X82131550Y-79071425D01*
X82246207Y-79132710D01*
X82370617Y-79170450D01*
X82467581Y-79180000D01*
X82500000Y-79183193D01*
X82532419Y-79180000D01*
X96467581Y-79180000D01*
X96500000Y-79183193D01*
X96532419Y-79180000D01*
X96629383Y-79170450D01*
X96753793Y-79132710D01*
X96868450Y-79071425D01*
X96968948Y-78988948D01*
X97051425Y-78888450D01*
X97112710Y-78773793D01*
X97150450Y-78649383D01*
X97163193Y-78520000D01*
X97160000Y-78487581D01*
X97160000Y-67500000D01*
X100836807Y-67500000D01*
X100840000Y-67532419D01*
X100840001Y-81467571D01*
X100836807Y-81500000D01*
X100849550Y-81629383D01*
X100887290Y-81753793D01*
X100948575Y-81868450D01*
X101031052Y-81968948D01*
X101131550Y-82051425D01*
X101246207Y-82112710D01*
X101370617Y-82150450D01*
X101467581Y-82160000D01*
X101500000Y-82163193D01*
X101532419Y-82160000D01*
X115467581Y-82160000D01*
X115500000Y-82163193D01*
X115532419Y-82160000D01*
X115629383Y-82150450D01*
X115753793Y-82112710D01*
X115868450Y-82051425D01*
X115968948Y-81968948D01*
X116051425Y-81868450D01*
X116112710Y-81753793D01*
X116150450Y-81629383D01*
X116163193Y-81500000D01*
X116160000Y-81467581D01*
X116160000Y-79500000D01*
X119836807Y-79500000D01*
X119840000Y-79532419D01*
X119840001Y-93467571D01*
X119836807Y-93500000D01*
X119849550Y-93629383D01*
X119887290Y-93753793D01*
X119948575Y-93868450D01*
X120031052Y-93968948D01*
X120131550Y-94051425D01*
X120246207Y-94112710D01*
X120370617Y-94150450D01*
X120467581Y-94160000D01*
X120500000Y-94163193D01*
X120532419Y-94160000D01*
X134467581Y-94160000D01*
X134500000Y-94163193D01*
X134532419Y-94160000D01*
X134629383Y-94150450D01*
X134753793Y-94112710D01*
X134868450Y-94051425D01*
X134968948Y-93968948D01*
X135051425Y-93868450D01*
X135112710Y-93753793D01*
X135150450Y-93629383D01*
X135163193Y-93500000D01*
X135160000Y-93467581D01*
X135160000Y-86500000D01*
X138836807Y-86500000D01*
X138840000Y-86532419D01*
X138840001Y-100467571D01*
X138836807Y-100500000D01*
X138849550Y-100629383D01*
X138887290Y-100753793D01*
X138948575Y-100868450D01*
X139031052Y-100968948D01*
X139131550Y-101051425D01*
X139246207Y-101112710D01*
X139370617Y-101150450D01*
X139467581Y-101160000D01*
X139500000Y-101163193D01*
X139532419Y-101160000D01*
X153467581Y-101160000D01*
X153500000Y-101163193D01*
X153532419Y-101160000D01*
X153629383Y-101150450D01*
X153753793Y-101112710D01*
X153868450Y-101051425D01*
X153968948Y-100968948D01*
X154051425Y-100868450D01*
X154112710Y-100753793D01*
X154150450Y-100629383D01*
X154163193Y-100500000D01*
X154160000Y-100467581D01*
X154160000Y-87500000D01*
X157836807Y-87500000D01*
X157840000Y-87532419D01*
X157840001Y-101467571D01*
X157836807Y-101500000D01*
X157849550Y-101629383D01*
X157887290Y-101753793D01*
X157948575Y-101868450D01*
X158031052Y-101968948D01*
X158131550Y-102051425D01*
X158246207Y-102112710D01*
X158370617Y-102150450D01*
X158467581Y-102160000D01*
X158500000Y-102163193D01*
X158532419Y-102160000D01*
X172467581Y-102160000D01*
X172500000Y-102163193D01*
X172532419Y-102160000D01*
X172629383Y-102150450D01*
X172753793Y-102112710D01*
X172868450Y-102051425D01*
X172968948Y-101968948D01*
X173051425Y-101868450D01*
X173112710Y-101753793D01*
X173150450Y-101629383D01*
X173163193Y-101500000D01*
X173160000Y-101467581D01*
X173160000Y-87532419D01*
X173163193Y-87500000D01*
X173150450Y-87370617D01*
X173112710Y-87246207D01*
X173051425Y-87131550D01*
X172968948Y-87031052D01*
X172868450Y-86948575D01*
X172753793Y-86887290D01*
X172629383Y-86849550D01*
X172532419Y-86840000D01*
X172500000Y-86836807D01*
X172467581Y-86840000D01*
X158532419Y-86840000D01*
X158500000Y-86836807D01*
X158467581Y-86840000D01*
X158370617Y-86849550D01*
X158246207Y-86887290D01*
X158131550Y-86948575D01*
X158031052Y-87031052D01*
X157948575Y-87131550D01*
X157887290Y-87246207D01*
X157849550Y-87370617D01*
X157836807Y-87500000D01*
X154160000Y-87500000D01*
X154160000Y-86532419D01*
X154163193Y-86500000D01*
X154150450Y-86370617D01*
X154112710Y-86246207D01*
X154051425Y-86131550D01*
X153968948Y-86031052D01*
X153868450Y-85948575D01*
X153753793Y-85887290D01*
X153629383Y-85849550D01*
X153532419Y-85840000D01*
X153500000Y-85836807D01*
X153467581Y-85840000D01*
X139532419Y-85840000D01*
X139500000Y-85836807D01*
X139467581Y-85840000D01*
X139370617Y-85849550D01*
X139246207Y-85887290D01*
X139131550Y-85948575D01*
X139031052Y-86031052D01*
X138948575Y-86131550D01*
X138887290Y-86246207D01*
X138849550Y-86370617D01*
X138836807Y-86500000D01*
X135160000Y-86500000D01*
X135160000Y-79532419D01*
X135163193Y-79500000D01*
X135150450Y-79370617D01*
X135112710Y-79246207D01*
X135051425Y-79131550D01*
X134968948Y-79031052D01*
X134868450Y-78948575D01*
X134753793Y-78887290D01*
X134629383Y-78849550D01*
X134532419Y-78840000D01*
X134500000Y-78836807D01*
X134467581Y-78840000D01*
X120532419Y-78840000D01*
X120500000Y-78836807D01*
X120467581Y-78840000D01*
X120370617Y-78849550D01*
X120246207Y-78887290D01*
X120131550Y-78948575D01*
X120031052Y-79031052D01*
X119948575Y-79131550D01*
X119887290Y-79246207D01*
X119849550Y-79370617D01*
X119836807Y-79500000D01*
X116160000Y-79500000D01*
X116160000Y-67532419D01*
X116163193Y-67500000D01*
X116150450Y-67370617D01*
X116112710Y-67246207D01*
X116051425Y-67131550D01*
X115968948Y-67031052D01*
X115868450Y-66948575D01*
X115753793Y-66887290D01*
X115629383Y-66849550D01*
X115532419Y-66840000D01*
X115500000Y-66836807D01*
X115467581Y-66840000D01*
X101532419Y-66840000D01*
X101500000Y-66836807D01*
X101467581Y-66840000D01*
X101370617Y-66849550D01*
X101246207Y-66887290D01*
X101131550Y-66948575D01*
X101031052Y-67031052D01*
X100948575Y-67131550D01*
X100887290Y-67246207D01*
X100849550Y-67370617D01*
X100836807Y-67500000D01*
X97160000Y-67500000D01*
X97160000Y-64552419D01*
X97163193Y-64520000D01*
X97150450Y-64390617D01*
X97112710Y-64266207D01*
X97051425Y-64151550D01*
X96968948Y-64051052D01*
X96868450Y-63968575D01*
X96753793Y-63907290D01*
X96629383Y-63869550D01*
X96532419Y-63860000D01*
X96500000Y-63856807D01*
X96467581Y-63860000D01*
X82532419Y-63860000D01*
X82500000Y-63856807D01*
X82467581Y-63860000D01*
X82370617Y-63869550D01*
X82246207Y-63907290D01*
X82131550Y-63968575D01*
X82031052Y-64051052D01*
X81948575Y-64151550D01*
X81887290Y-64266207D01*
X81849550Y-64390617D01*
X81836807Y-64520000D01*
X80660000Y-64520000D01*
X80660000Y-63230626D01*
X99265000Y-63230626D01*
X99265000Y-63769374D01*
X99370105Y-64297770D01*
X99576275Y-64795508D01*
X99875587Y-65243461D01*
X100256539Y-65624413D01*
X100704492Y-65923725D01*
X101202230Y-66129895D01*
X101730626Y-66235000D01*
X102269374Y-66235000D01*
X102797770Y-66129895D01*
X103295508Y-65923725D01*
X103743461Y-65624413D01*
X104124413Y-65243461D01*
X104423725Y-64795508D01*
X104629895Y-64297770D01*
X104735000Y-63769374D01*
X104735000Y-63230626D01*
X104629895Y-62702230D01*
X104546129Y-62500000D01*
X119836807Y-62500000D01*
X119840000Y-62532419D01*
X119840001Y-76467571D01*
X119836807Y-76500000D01*
X119849550Y-76629383D01*
X119887290Y-76753793D01*
X119948575Y-76868450D01*
X120031052Y-76968948D01*
X120131550Y-77051425D01*
X120246207Y-77112710D01*
X120370617Y-77150450D01*
X120467581Y-77160000D01*
X120500000Y-77163193D01*
X120532419Y-77160000D01*
X134467581Y-77160000D01*
X134500000Y-77163193D01*
X134532419Y-77160000D01*
X134629383Y-77150450D01*
X134753793Y-77112710D01*
X134868450Y-77051425D01*
X134968948Y-76968948D01*
X135051425Y-76868450D01*
X135112710Y-76753793D01*
X135150450Y-76629383D01*
X135163193Y-76500000D01*
X135160000Y-76467581D01*
X135160000Y-69500000D01*
X138836807Y-69500000D01*
X138840000Y-69532419D01*
X138840001Y-83467571D01*
X138836807Y-83500000D01*
X138849550Y-83629383D01*
X138887290Y-83753793D01*
X138948575Y-83868450D01*
X139031052Y-83968948D01*
X139131550Y-84051425D01*
X139246207Y-84112710D01*
X139370617Y-84150450D01*
X139467581Y-84160000D01*
X139500000Y-84163193D01*
X139532419Y-84160000D01*
X153467581Y-84160000D01*
X153500000Y-84163193D01*
X153532419Y-84160000D01*
X153629383Y-84150450D01*
X153753793Y-84112710D01*
X153868450Y-84051425D01*
X153968948Y-83968948D01*
X154051425Y-83868450D01*
X154112710Y-83753793D01*
X154150450Y-83629383D01*
X154163193Y-83500000D01*
X154160000Y-83467581D01*
X154160000Y-70500000D01*
X157836807Y-70500000D01*
X157840000Y-70532419D01*
X157840001Y-84467571D01*
X157836807Y-84500000D01*
X157849550Y-84629383D01*
X157887290Y-84753793D01*
X157948575Y-84868450D01*
X158031052Y-84968948D01*
X158131550Y-85051425D01*
X158246207Y-85112710D01*
X158370617Y-85150450D01*
X158467581Y-85160000D01*
X158500000Y-85163193D01*
X158532419Y-85160000D01*
X172467581Y-85160000D01*
X172500000Y-85163193D01*
X172532419Y-85160000D01*
X172629383Y-85150450D01*
X172753793Y-85112710D01*
X172868450Y-85051425D01*
X172968948Y-84968948D01*
X173051425Y-84868450D01*
X173112710Y-84753793D01*
X173150450Y-84629383D01*
X173163193Y-84500000D01*
X173160000Y-84467581D01*
X173160000Y-70532419D01*
X173163193Y-70500000D01*
X173150450Y-70370617D01*
X173112710Y-70246207D01*
X173051425Y-70131550D01*
X172968948Y-70031052D01*
X172868450Y-69948575D01*
X172753793Y-69887290D01*
X172629383Y-69849550D01*
X172532419Y-69840000D01*
X172500000Y-69836807D01*
X172467581Y-69840000D01*
X158532419Y-69840000D01*
X158500000Y-69836807D01*
X158467581Y-69840000D01*
X158370617Y-69849550D01*
X158246207Y-69887290D01*
X158131550Y-69948575D01*
X158031052Y-70031052D01*
X157948575Y-70131550D01*
X157887290Y-70246207D01*
X157849550Y-70370617D01*
X157836807Y-70500000D01*
X154160000Y-70500000D01*
X154160000Y-69532419D01*
X154163193Y-69500000D01*
X154150450Y-69370617D01*
X154112710Y-69246207D01*
X154051425Y-69131550D01*
X153968948Y-69031052D01*
X153868450Y-68948575D01*
X153753793Y-68887290D01*
X153629383Y-68849550D01*
X153532419Y-68840000D01*
X153500000Y-68836807D01*
X153467581Y-68840000D01*
X139532419Y-68840000D01*
X139500000Y-68836807D01*
X139467581Y-68840000D01*
X139370617Y-68849550D01*
X139246207Y-68887290D01*
X139131550Y-68948575D01*
X139031052Y-69031052D01*
X138948575Y-69131550D01*
X138887290Y-69246207D01*
X138849550Y-69370617D01*
X138836807Y-69500000D01*
X135160000Y-69500000D01*
X135160000Y-65730626D01*
X154265000Y-65730626D01*
X154265000Y-66269374D01*
X154370105Y-66797770D01*
X154576275Y-67295508D01*
X154875587Y-67743461D01*
X155256539Y-68124413D01*
X155704492Y-68423725D01*
X156202230Y-68629895D01*
X156730626Y-68735000D01*
X157269374Y-68735000D01*
X157797770Y-68629895D01*
X158295508Y-68423725D01*
X158743461Y-68124413D01*
X159124413Y-67743461D01*
X159423725Y-67295508D01*
X159629895Y-66797770D01*
X159735000Y-66269374D01*
X159735000Y-65730626D01*
X159629895Y-65202230D01*
X159423725Y-64704492D01*
X159124413Y-64256539D01*
X158743461Y-63875587D01*
X158295508Y-63576275D01*
X157797770Y-63370105D01*
X157269374Y-63265000D01*
X156730626Y-63265000D01*
X156202230Y-63370105D01*
X155704492Y-63576275D01*
X155256539Y-63875587D01*
X154875587Y-64256539D01*
X154576275Y-64704492D01*
X154370105Y-65202230D01*
X154265000Y-65730626D01*
X135160000Y-65730626D01*
X135160000Y-62532419D01*
X135163193Y-62500000D01*
X135150450Y-62370617D01*
X135112710Y-62246207D01*
X135051425Y-62131550D01*
X134968948Y-62031052D01*
X134868450Y-61948575D01*
X134753793Y-61887290D01*
X134629383Y-61849550D01*
X134532419Y-61840000D01*
X134500000Y-61836807D01*
X134467581Y-61840000D01*
X120532419Y-61840000D01*
X120500000Y-61836807D01*
X120467581Y-61840000D01*
X120370617Y-61849550D01*
X120246207Y-61887290D01*
X120131550Y-61948575D01*
X120031052Y-62031052D01*
X119948575Y-62131550D01*
X119887290Y-62246207D01*
X119849550Y-62370617D01*
X119836807Y-62500000D01*
X104546129Y-62500000D01*
X104423725Y-62204492D01*
X104124413Y-61756539D01*
X103743461Y-61375587D01*
X103295508Y-61076275D01*
X102797770Y-60870105D01*
X102269374Y-60765000D01*
X101730626Y-60765000D01*
X101202230Y-60870105D01*
X100704492Y-61076275D01*
X100256539Y-61375587D01*
X99875587Y-61756539D01*
X99576275Y-62204492D01*
X99370105Y-62702230D01*
X99265000Y-63230626D01*
X80660000Y-63230626D01*
X80660000Y-62032279D01*
X80688625Y-61740341D01*
X80764035Y-61490571D01*
X80886522Y-61260208D01*
X81051422Y-61058020D01*
X81252450Y-60891714D01*
X81481954Y-60767622D01*
X81731195Y-60690469D01*
X82021088Y-60660000D01*
X173067721Y-60660000D01*
X173359659Y-60688625D01*
G36*
X193442195Y-130734403D02*
G01*
X190374626Y-143037752D01*
X178071275Y-139970182D01*
X181138846Y-127666832D01*
X193442195Y-130734403D01*
X193442195Y-130734403D01*
G37*
X193442195Y-130734403D02*
X190374626Y-143037752D01*
X178071275Y-139970182D01*
X181138846Y-127666832D01*
X193442195Y-130734403D01*
G36*
X175002195Y-126144403D02*
G01*
X171934626Y-138447752D01*
X159631275Y-135380182D01*
X162698846Y-123076832D01*
X175002195Y-126144403D01*
X175002195Y-126144403D01*
G37*
X175002195Y-126144403D02*
X171934626Y-138447752D01*
X159631275Y-135380182D01*
X162698846Y-123076832D01*
X175002195Y-126144403D01*
G36*
X133840001Y-134840000D02*
G01*
X121160000Y-134840000D01*
X121160000Y-122160000D01*
X133840000Y-122160000D01*
X133840001Y-134840000D01*
X133840001Y-134840000D01*
G37*
X133840001Y-134840000D02*
X121160000Y-134840000D01*
X121160000Y-122160000D01*
X133840000Y-122160000D01*
X133840001Y-134840000D01*
G36*
X152840001Y-134840000D02*
G01*
X140160000Y-134840000D01*
X140160000Y-122160000D01*
X152840000Y-122160000D01*
X152840001Y-134840000D01*
X152840001Y-134840000D01*
G37*
X152840001Y-134840000D02*
X140160000Y-134840000D01*
X140160000Y-122160000D01*
X152840000Y-122160000D01*
X152840001Y-134840000D01*
G36*
X114840001Y-131840000D02*
G01*
X102160000Y-131840000D01*
X102160000Y-119160000D01*
X114840000Y-119160000D01*
X114840001Y-131840000D01*
X114840001Y-131840000D01*
G37*
X114840001Y-131840000D02*
X102160000Y-131840000D01*
X102160000Y-119160000D01*
X114840000Y-119160000D01*
X114840001Y-131840000D01*
G36*
X95840001Y-128860000D02*
G01*
X83160000Y-128860000D01*
X83160000Y-116180000D01*
X95840000Y-116180000D01*
X95840001Y-128860000D01*
X95840001Y-128860000D01*
G37*
X95840001Y-128860000D02*
X83160000Y-128860000D01*
X83160000Y-116180000D01*
X95840000Y-116180000D01*
X95840001Y-128860000D01*
G36*
X190840001Y-121520000D02*
G01*
X178160000Y-121520000D01*
X178160000Y-108840000D01*
X190840000Y-108840000D01*
X190840001Y-121520000D01*
X190840001Y-121520000D01*
G37*
X190840001Y-121520000D02*
X178160000Y-121520000D01*
X178160000Y-108840000D01*
X190840000Y-108840000D01*
X190840001Y-121520000D01*
G36*
X171840001Y-117840000D02*
G01*
X159160000Y-117840000D01*
X159160000Y-105160000D01*
X171840000Y-105160000D01*
X171840001Y-117840000D01*
X171840001Y-117840000D01*
G37*
X171840001Y-117840000D02*
X159160000Y-117840000D01*
X159160000Y-105160000D01*
X171840000Y-105160000D01*
X171840001Y-117840000D01*
G36*
X152840001Y-116840000D02*
G01*
X140160000Y-116840000D01*
X140160000Y-104160000D01*
X152840000Y-104160000D01*
X152840001Y-116840000D01*
X152840001Y-116840000D01*
G37*
X152840001Y-116840000D02*
X140160000Y-116840000D01*
X140160000Y-104160000D01*
X152840000Y-104160000D01*
X152840001Y-116840000D01*
G36*
X114840001Y-114840000D02*
G01*
X102160000Y-114840000D01*
X102160000Y-102160000D01*
X114840000Y-102160000D01*
X114840001Y-114840000D01*
X114840001Y-114840000D01*
G37*
X114840001Y-114840000D02*
X102160000Y-114840000D01*
X102160000Y-102160000D01*
X114840000Y-102160000D01*
X114840001Y-114840000D01*
G36*
X95840001Y-111860000D02*
G01*
X83160000Y-111860000D01*
X83160000Y-99180000D01*
X95840000Y-99180000D01*
X95840001Y-111860000D01*
X95840001Y-111860000D01*
G37*
X95840001Y-111860000D02*
X83160000Y-111860000D01*
X83160000Y-99180000D01*
X95840000Y-99180000D01*
X95840001Y-111860000D01*
G36*
X133840001Y-109840000D02*
G01*
X121160000Y-109840000D01*
X121160000Y-97160000D01*
X133840000Y-97160000D01*
X133840001Y-109840000D01*
X133840001Y-109840000D01*
G37*
X133840001Y-109840000D02*
X121160000Y-109840000D01*
X121160000Y-97160000D01*
X133840000Y-97160000D01*
X133840001Y-109840000D01*
G36*
X171840001Y-100840000D02*
G01*
X159160000Y-100840000D01*
X159160000Y-88160000D01*
X171840000Y-88160000D01*
X171840001Y-100840000D01*
X171840001Y-100840000D01*
G37*
X171840001Y-100840000D02*
X159160000Y-100840000D01*
X159160000Y-88160000D01*
X171840000Y-88160000D01*
X171840001Y-100840000D01*
G36*
X152840001Y-99840000D02*
G01*
X140160000Y-99840000D01*
X140160000Y-87160000D01*
X152840000Y-87160000D01*
X152840001Y-99840000D01*
X152840001Y-99840000D01*
G37*
X152840001Y-99840000D02*
X140160000Y-99840000D01*
X140160000Y-87160000D01*
X152840000Y-87160000D01*
X152840001Y-99840000D01*
G36*
X114840001Y-97840000D02*
G01*
X102160000Y-97840000D01*
X102160000Y-85160000D01*
X114840000Y-85160000D01*
X114840001Y-97840000D01*
X114840001Y-97840000D01*
G37*
X114840001Y-97840000D02*
X102160000Y-97840000D01*
X102160000Y-85160000D01*
X114840000Y-85160000D01*
X114840001Y-97840000D01*
G36*
X95840001Y-94860000D02*
G01*
X83160000Y-94860000D01*
X83160000Y-82180000D01*
X95840000Y-82180000D01*
X95840001Y-94860000D01*
X95840001Y-94860000D01*
G37*
X95840001Y-94860000D02*
X83160000Y-94860000D01*
X83160000Y-82180000D01*
X95840000Y-82180000D01*
X95840001Y-94860000D01*
G36*
X133840001Y-92840000D02*
G01*
X121160000Y-92840000D01*
X121160000Y-80160000D01*
X133840000Y-80160000D01*
X133840001Y-92840000D01*
X133840001Y-92840000D01*
G37*
X133840001Y-92840000D02*
X121160000Y-92840000D01*
X121160000Y-80160000D01*
X133840000Y-80160000D01*
X133840001Y-92840000D01*
G36*
X171840001Y-83840000D02*
G01*
X159160000Y-83840000D01*
X159160000Y-71160000D01*
X171840000Y-71160000D01*
X171840001Y-83840000D01*
X171840001Y-83840000D01*
G37*
X171840001Y-83840000D02*
X159160000Y-83840000D01*
X159160000Y-71160000D01*
X171840000Y-71160000D01*
X171840001Y-83840000D01*
G36*
X152840001Y-82840000D02*
G01*
X140160000Y-82840000D01*
X140160000Y-70160000D01*
X152840000Y-70160000D01*
X152840001Y-82840000D01*
X152840001Y-82840000D01*
G37*
X152840001Y-82840000D02*
X140160000Y-82840000D01*
X140160000Y-70160000D01*
X152840000Y-70160000D01*
X152840001Y-82840000D01*
G36*
X114840001Y-80840000D02*
G01*
X102160000Y-80840000D01*
X102160000Y-68160000D01*
X114840000Y-68160000D01*
X114840001Y-80840000D01*
X114840001Y-80840000D01*
G37*
X114840001Y-80840000D02*
X102160000Y-80840000D01*
X102160000Y-68160000D01*
X114840000Y-68160000D01*
X114840001Y-80840000D01*
G36*
X95840001Y-77860000D02*
G01*
X83160000Y-77860000D01*
X83160000Y-65180000D01*
X95840000Y-65180000D01*
X95840001Y-77860000D01*
X95840001Y-77860000D01*
G37*
X95840001Y-77860000D02*
X83160000Y-77860000D01*
X83160000Y-65180000D01*
X95840000Y-65180000D01*
X95840001Y-77860000D01*
G36*
X133840001Y-75840000D02*
G01*
X121160000Y-75840000D01*
X121160000Y-63160000D01*
X133840000Y-63160000D01*
X133840001Y-75840000D01*
X133840001Y-75840000D01*
G37*
X133840001Y-75840000D02*
X121160000Y-75840000D01*
X121160000Y-63160000D01*
X133840000Y-63160000D01*
X133840001Y-75840000D01*
M02*
