%TF.GenerationSoftware,KiCad,Pcbnew,(5.1.0)-1*%
%TF.CreationDate,2021-02-23T00:40:23+09:00*%
%TF.ProjectId,topplate,746f7070-6c61-4746-952e-6b696361645f,rev?*%
%TF.SameCoordinates,Original*%
%TF.FileFunction,Profile,NP*%
%FSLAX46Y46*%
G04 Gerber Fmt 4.6, Leading zero omitted, Abs format (unit mm)*
G04 Created by KiCad (PCBNEW (5.1.0)-1) date 2021-02-23 00:40:23*
%MOMM*%
%LPD*%
G04 APERTURE LIST*
%ADD10C,0.050000*%
G04 APERTURE END LIST*
D10*
X162218119Y-122276769D02*
X158831212Y-135860909D01*
X158831212Y-135860909D02*
X172415352Y-139247816D01*
X180658119Y-126866769D02*
X194242259Y-130253676D01*
X180658119Y-126866769D02*
X177271212Y-140450909D01*
X177271212Y-140450909D02*
X190855352Y-143837816D01*
X194242259Y-130253676D02*
X190855352Y-143837816D01*
X162218119Y-122276769D02*
X175802259Y-125663676D01*
X175802259Y-125663676D02*
X172415352Y-139247816D01*
X177500000Y-108180000D02*
X191500000Y-108180000D01*
X177500000Y-122180000D02*
X191500000Y-122180000D01*
X191500000Y-108180000D02*
X191500000Y-122180000D01*
X177500000Y-108180000D02*
X177500000Y-122180000D01*
X139500000Y-121500000D02*
X153500000Y-121500000D01*
X139500000Y-135500000D02*
X153500000Y-135500000D01*
X153500000Y-121500000D02*
X153500000Y-135500000D01*
X139500000Y-121500000D02*
X139500000Y-135500000D01*
X158500000Y-104500000D02*
X172500000Y-104500000D01*
X158500000Y-118500000D02*
X172500000Y-118500000D01*
X172500000Y-104500000D02*
X172500000Y-118500000D01*
X158500000Y-104500000D02*
X158500000Y-118500000D01*
X158500000Y-87500000D02*
X172500000Y-87500000D01*
X158500000Y-101500000D02*
X172500000Y-101500000D01*
X172500000Y-87500000D02*
X172500000Y-101500000D01*
X158500000Y-87500000D02*
X158500000Y-101500000D01*
X158500000Y-70500000D02*
X172500000Y-70500000D01*
X158500000Y-84500000D02*
X172500000Y-84500000D01*
X172500000Y-70500000D02*
X172500000Y-84500000D01*
X158500000Y-70500000D02*
X158500000Y-84500000D01*
X139500000Y-103500000D02*
X153500000Y-103500000D01*
X139500000Y-117500000D02*
X153500000Y-117500000D01*
X153500000Y-103500000D02*
X153500000Y-117500000D01*
X139500000Y-103500000D02*
X139500000Y-117500000D01*
X139500000Y-86500000D02*
X153500000Y-86500000D01*
X139500000Y-100500000D02*
X153500000Y-100500000D01*
X153500000Y-86500000D02*
X153500000Y-100500000D01*
X139500000Y-86500000D02*
X139500000Y-100500000D01*
X139500000Y-69500000D02*
X153500000Y-69500000D01*
X139500000Y-83500000D02*
X153500000Y-83500000D01*
X153500000Y-69500000D02*
X153500000Y-83500000D01*
X139500000Y-69500000D02*
X139500000Y-83500000D01*
X120500000Y-121500000D02*
X134500000Y-121500000D01*
X120500000Y-135500000D02*
X134500000Y-135500000D01*
X134500000Y-121500000D02*
X134500000Y-135500000D01*
X120500000Y-121500000D02*
X120500000Y-135500000D01*
X120500000Y-96500000D02*
X134500000Y-96500000D01*
X120500000Y-110500000D02*
X134500000Y-110500000D01*
X134500000Y-96500000D02*
X134500000Y-110500000D01*
X120500000Y-96500000D02*
X120500000Y-110500000D01*
X120500000Y-79500000D02*
X134500000Y-79500000D01*
X120500000Y-93500000D02*
X134500000Y-93500000D01*
X134500000Y-79500000D02*
X134500000Y-93500000D01*
X120500000Y-79500000D02*
X120500000Y-93500000D01*
X120500000Y-62500000D02*
X134500000Y-62500000D01*
X120500000Y-76500000D02*
X134500000Y-76500000D01*
X134500000Y-62500000D02*
X134500000Y-76500000D01*
X120500000Y-62500000D02*
X120500000Y-76500000D01*
X101500000Y-118500000D02*
X115500000Y-118500000D01*
X101500000Y-132500000D02*
X115500000Y-132500000D01*
X115500000Y-118500000D02*
X115500000Y-132500000D01*
X101500000Y-118500000D02*
X101500000Y-132500000D01*
X101500000Y-101500000D02*
X115500000Y-101500000D01*
X101500000Y-115500000D02*
X115500000Y-115500000D01*
X115500000Y-101500000D02*
X115500000Y-115500000D01*
X101500000Y-101500000D02*
X101500000Y-115500000D01*
X101500000Y-84500000D02*
X115500000Y-84500000D01*
X101500000Y-98500000D02*
X115500000Y-98500000D01*
X115500000Y-84500000D02*
X115500000Y-98500000D01*
X101500000Y-84500000D02*
X101500000Y-98500000D01*
X101500000Y-67500000D02*
X115500000Y-67500000D01*
X101500000Y-81500000D02*
X115500000Y-81500000D01*
X115500000Y-67500000D02*
X115500000Y-81500000D01*
X101500000Y-67500000D02*
X101500000Y-81500000D01*
X82500000Y-115520000D02*
X96500000Y-115520000D01*
X82500000Y-129520000D02*
X96500000Y-129520000D01*
X96500000Y-115520000D02*
X96500000Y-129520000D01*
X82500000Y-115520000D02*
X82500000Y-129520000D01*
X82500000Y-98520000D02*
X96500000Y-98520000D01*
X82500000Y-112520000D02*
X96500000Y-112520000D01*
X96500000Y-98520000D02*
X96500000Y-112520000D01*
X82500000Y-98520000D02*
X82500000Y-112520000D01*
X82500000Y-81520000D02*
X96500000Y-81520000D01*
X82500000Y-95520000D02*
X96500000Y-95520000D01*
X96500000Y-81520000D02*
X96500000Y-95520000D01*
X82500000Y-81520000D02*
X82500000Y-95520000D01*
X82500000Y-78520000D02*
X96500000Y-78520000D01*
X82500000Y-64520000D02*
X82500000Y-78520000D01*
X96500000Y-64520000D02*
X96500000Y-78520000D01*
X82500000Y-64520000D02*
X96500000Y-64520000D01*
X80000000Y-131220000D02*
X80000000Y-62000000D01*
X191120001Y-145969999D02*
X81770373Y-133206774D01*
X197039999Y-129429999D02*
X193295182Y-144458813D01*
X197100000Y-108000000D02*
X197100924Y-128939999D01*
X177100000Y-106000000D02*
X195100000Y-106000000D01*
X175100000Y-62000000D02*
X175100000Y-104000000D01*
X82000000Y-60000000D02*
X173100000Y-60000000D01*
X81770373Y-133206774D02*
G75*
G02X80000000Y-131220000I229627J1986774D01*
G01*
X193295182Y-144458813D02*
G75*
G02X191120001Y-145969999I-1945182J478813D01*
G01*
X197100924Y-128939999D02*
G75*
G02X197039999Y-129429999I-2000924J-1D01*
G01*
X195100000Y-106000000D02*
G75*
G02X197100000Y-108000000I0J-2000000D01*
G01*
X177100000Y-106000000D02*
G75*
G02X175100000Y-104000000I0J2000000D01*
G01*
X173100000Y-60000000D02*
G75*
G02X175100000Y-62000000I0J-2000000D01*
G01*
X80000000Y-62000000D02*
G75*
G02X82000000Y-60000000I2000000J0D01*
G01*
M02*
