%TF.GenerationSoftware,KiCad,Pcbnew,(5.1.0)-1*%
%TF.CreationDate,2021-02-23T00:40:23+09:00*%
%TF.ProjectId,topplate,746f7070-6c61-4746-952e-6b696361645f,rev?*%
%TF.SameCoordinates,Original*%
%TF.FileFunction,Soldermask,Bot*%
%TF.FilePolarity,Negative*%
%FSLAX46Y46*%
G04 Gerber Fmt 4.6, Leading zero omitted, Abs format (unit mm)*
G04 Created by KiCad (PCBNEW (5.1.0)-1) date 2021-02-23 00:40:23*
%MOMM*%
%LPD*%
G04 APERTURE LIST*
%ADD10C,0.200000*%
%ADD11C,4.200000*%
G04 APERTURE END LIST*
D10*
X149785714Y-64602380D02*
X150261904Y-64602380D01*
X150261904Y-63602380D01*
X149023809Y-63935714D02*
X149023809Y-64602380D01*
X149452380Y-63935714D02*
X149452380Y-64459523D01*
X149404761Y-64554761D01*
X149309523Y-64602380D01*
X149166666Y-64602380D01*
X149071428Y-64554761D01*
X149023809Y-64507142D01*
X148547619Y-63935714D02*
X148547619Y-64602380D01*
X148547619Y-64030952D02*
X148500000Y-63983333D01*
X148404761Y-63935714D01*
X148261904Y-63935714D01*
X148166666Y-63983333D01*
X148119047Y-64078571D01*
X148119047Y-64602380D01*
X147214285Y-64554761D02*
X147309523Y-64602380D01*
X147500000Y-64602380D01*
X147595238Y-64554761D01*
X147642857Y-64507142D01*
X147690476Y-64411904D01*
X147690476Y-64126190D01*
X147642857Y-64030952D01*
X147595238Y-63983333D01*
X147500000Y-63935714D01*
X147309523Y-63935714D01*
X147214285Y-63983333D01*
X146785714Y-64602380D02*
X146785714Y-63602380D01*
X146357142Y-64602380D02*
X146357142Y-64078571D01*
X146404761Y-63983333D01*
X146500000Y-63935714D01*
X146642857Y-63935714D01*
X146738095Y-63983333D01*
X146785714Y-64030952D01*
X145547619Y-64078571D02*
X145404761Y-64126190D01*
X145357142Y-64173809D01*
X145309523Y-64269047D01*
X145309523Y-64411904D01*
X145357142Y-64507142D01*
X145404761Y-64554761D01*
X145500000Y-64602380D01*
X145880952Y-64602380D01*
X145880952Y-63602380D01*
X145547619Y-63602380D01*
X145452380Y-63650000D01*
X145404761Y-63697619D01*
X145357142Y-63792857D01*
X145357142Y-63888095D01*
X145404761Y-63983333D01*
X145452380Y-64030952D01*
X145547619Y-64078571D01*
X145880952Y-64078571D01*
X144738095Y-64602380D02*
X144833333Y-64554761D01*
X144880952Y-64507142D01*
X144928571Y-64411904D01*
X144928571Y-64126190D01*
X144880952Y-64030952D01*
X144833333Y-63983333D01*
X144738095Y-63935714D01*
X144595238Y-63935714D01*
X144500000Y-63983333D01*
X144452380Y-64030952D01*
X144404761Y-64126190D01*
X144404761Y-64411904D01*
X144452380Y-64507142D01*
X144500000Y-64554761D01*
X144595238Y-64602380D01*
X144738095Y-64602380D01*
X144071428Y-64602380D02*
X143547619Y-63935714D01*
X144071428Y-63935714D02*
X143547619Y-64602380D01*
X142500000Y-63935714D02*
X142261904Y-64602380D01*
X142023809Y-63935714D01*
X141738095Y-63602380D02*
X141119047Y-63602380D01*
X141452380Y-63983333D01*
X141309523Y-63983333D01*
X141214285Y-64030952D01*
X141166666Y-64078571D01*
X141119047Y-64173809D01*
X141119047Y-64411904D01*
X141166666Y-64507142D01*
X141214285Y-64554761D01*
X141309523Y-64602380D01*
X141595238Y-64602380D01*
X141690476Y-64554761D01*
X141738095Y-64507142D01*
X140690476Y-64507142D02*
X140642857Y-64554761D01*
X140690476Y-64602380D01*
X140738095Y-64554761D01*
X140690476Y-64507142D01*
X140690476Y-64602380D01*
X140023809Y-63602380D02*
X139928571Y-63602380D01*
X139833333Y-63650000D01*
X139785714Y-63697619D01*
X139738095Y-63792857D01*
X139690476Y-63983333D01*
X139690476Y-64221428D01*
X139738095Y-64411904D01*
X139785714Y-64507142D01*
X139833333Y-64554761D01*
X139928571Y-64602380D01*
X140023809Y-64602380D01*
X140119047Y-64554761D01*
X140166666Y-64507142D01*
X140214285Y-64411904D01*
X140261904Y-64221428D01*
X140261904Y-63983333D01*
X140214285Y-63792857D01*
X140166666Y-63697619D01*
X140119047Y-63650000D01*
X140023809Y-63602380D01*
X152904761Y-66302380D02*
X152904761Y-65302380D01*
X152523809Y-65302380D01*
X152428571Y-65350000D01*
X152380952Y-65397619D01*
X152333333Y-65492857D01*
X152333333Y-65635714D01*
X152380952Y-65730952D01*
X152428571Y-65778571D01*
X152523809Y-65826190D01*
X152904761Y-65826190D01*
X151333333Y-66207142D02*
X151380952Y-66254761D01*
X151523809Y-66302380D01*
X151619047Y-66302380D01*
X151761904Y-66254761D01*
X151857142Y-66159523D01*
X151904761Y-66064285D01*
X151952380Y-65873809D01*
X151952380Y-65730952D01*
X151904761Y-65540476D01*
X151857142Y-65445238D01*
X151761904Y-65350000D01*
X151619047Y-65302380D01*
X151523809Y-65302380D01*
X151380952Y-65350000D01*
X151333333Y-65397619D01*
X150571428Y-65778571D02*
X150428571Y-65826190D01*
X150380952Y-65873809D01*
X150333333Y-65969047D01*
X150333333Y-66111904D01*
X150380952Y-66207142D01*
X150428571Y-66254761D01*
X150523809Y-66302380D01*
X150904761Y-66302380D01*
X150904761Y-65302380D01*
X150571428Y-65302380D01*
X150476190Y-65350000D01*
X150428571Y-65397619D01*
X150380952Y-65492857D01*
X150380952Y-65588095D01*
X150428571Y-65683333D01*
X150476190Y-65730952D01*
X150571428Y-65778571D01*
X150904761Y-65778571D01*
X149142857Y-66302380D02*
X149142857Y-65302380D01*
X148904761Y-65302380D01*
X148761904Y-65350000D01*
X148666666Y-65445238D01*
X148619047Y-65540476D01*
X148571428Y-65730952D01*
X148571428Y-65873809D01*
X148619047Y-66064285D01*
X148666666Y-66159523D01*
X148761904Y-66254761D01*
X148904761Y-66302380D01*
X149142857Y-66302380D01*
X147761904Y-66254761D02*
X147857142Y-66302380D01*
X148047619Y-66302380D01*
X148142857Y-66254761D01*
X148190476Y-66159523D01*
X148190476Y-65778571D01*
X148142857Y-65683333D01*
X148047619Y-65635714D01*
X147857142Y-65635714D01*
X147761904Y-65683333D01*
X147714285Y-65778571D01*
X147714285Y-65873809D01*
X148190476Y-65969047D01*
X147333333Y-66254761D02*
X147238095Y-66302380D01*
X147047619Y-66302380D01*
X146952380Y-66254761D01*
X146904761Y-66159523D01*
X146904761Y-66111904D01*
X146952380Y-66016666D01*
X147047619Y-65969047D01*
X147190476Y-65969047D01*
X147285714Y-65921428D01*
X147333333Y-65826190D01*
X147333333Y-65778571D01*
X147285714Y-65683333D01*
X147190476Y-65635714D01*
X147047619Y-65635714D01*
X146952380Y-65683333D01*
X146476190Y-66302380D02*
X146476190Y-65635714D01*
X146476190Y-65302380D02*
X146523809Y-65350000D01*
X146476190Y-65397619D01*
X146428571Y-65350000D01*
X146476190Y-65302380D01*
X146476190Y-65397619D01*
X145571428Y-65635714D02*
X145571428Y-66445238D01*
X145619047Y-66540476D01*
X145666666Y-66588095D01*
X145761904Y-66635714D01*
X145904761Y-66635714D01*
X146000000Y-66588095D01*
X145571428Y-66254761D02*
X145666666Y-66302380D01*
X145857142Y-66302380D01*
X145952380Y-66254761D01*
X146000000Y-66207142D01*
X146047619Y-66111904D01*
X146047619Y-65826190D01*
X146000000Y-65730952D01*
X145952380Y-65683333D01*
X145857142Y-65635714D01*
X145666666Y-65635714D01*
X145571428Y-65683333D01*
X145095238Y-65635714D02*
X145095238Y-66302380D01*
X145095238Y-65730952D02*
X145047619Y-65683333D01*
X144952380Y-65635714D01*
X144809523Y-65635714D01*
X144714285Y-65683333D01*
X144666666Y-65778571D01*
X144666666Y-66302380D01*
X143809523Y-66254761D02*
X143904761Y-66302380D01*
X144095238Y-66302380D01*
X144190476Y-66254761D01*
X144238095Y-66159523D01*
X144238095Y-65778571D01*
X144190476Y-65683333D01*
X144095238Y-65635714D01*
X143904761Y-65635714D01*
X143809523Y-65683333D01*
X143761904Y-65778571D01*
X143761904Y-65873809D01*
X144238095Y-65969047D01*
X142904761Y-66302380D02*
X142904761Y-65302380D01*
X142904761Y-66254761D02*
X143000000Y-66302380D01*
X143190476Y-66302380D01*
X143285714Y-66254761D01*
X143333333Y-66207142D01*
X143380952Y-66111904D01*
X143380952Y-65826190D01*
X143333333Y-65730952D01*
X143285714Y-65683333D01*
X143190476Y-65635714D01*
X143000000Y-65635714D01*
X142904761Y-65683333D01*
X141666666Y-66302380D02*
X141666666Y-65302380D01*
X141666666Y-65683333D02*
X141571428Y-65635714D01*
X141380952Y-65635714D01*
X141285714Y-65683333D01*
X141238095Y-65730952D01*
X141190476Y-65826190D01*
X141190476Y-66111904D01*
X141238095Y-66207142D01*
X141285714Y-66254761D01*
X141380952Y-66302380D01*
X141571428Y-66302380D01*
X141666666Y-66254761D01*
X140857142Y-65635714D02*
X140619047Y-66302380D01*
X140380952Y-65635714D02*
X140619047Y-66302380D01*
X140714285Y-66540476D01*
X140761904Y-66588095D01*
X140857142Y-66635714D01*
X139095238Y-66302380D02*
X139190476Y-66254761D01*
X139238095Y-66159523D01*
X139238095Y-65302380D01*
X138714285Y-66302380D02*
X138714285Y-65635714D01*
X138714285Y-65302380D02*
X138761904Y-65350000D01*
X138714285Y-65397619D01*
X138666666Y-65350000D01*
X138714285Y-65302380D01*
X138714285Y-65397619D01*
X138333333Y-66302380D02*
X137809523Y-65635714D01*
X138333333Y-65635714D02*
X137809523Y-66302380D01*
X137476190Y-66254761D02*
X137380952Y-66302380D01*
X137190476Y-66302380D01*
X137095238Y-66254761D01*
X137047619Y-66159523D01*
X137047619Y-66111904D01*
X137095238Y-66016666D01*
X137190476Y-65969047D01*
X137333333Y-65969047D01*
X137428571Y-65921428D01*
X137476190Y-65826190D01*
X137476190Y-65778571D01*
X137428571Y-65683333D01*
X137333333Y-65635714D01*
X137190476Y-65635714D01*
X137095238Y-65683333D01*
D11*
%TO.C,H1*%
X97750000Y-132780000D03*
%TD*%
%TO.C,H1*%
X134000000Y-116000000D03*
%TD*%
%TO.C,H1*%
X157000000Y-66000000D03*
%TD*%
%TO.C,H1*%
X102000000Y-63500000D03*
%TD*%
%TO.C,H1*%
X193400000Y-125880000D03*
%TD*%
M02*
