%TF.GenerationSoftware,KiCad,Pcbnew,(5.1.0)-1*%
%TF.CreationDate,2021-02-23T00:40:23+09:00*%
%TF.ProjectId,topplate,746f7070-6c61-4746-952e-6b696361645f,rev?*%
%TF.SameCoordinates,Original*%
%TF.FileFunction,Soldermask,Top*%
%TF.FilePolarity,Negative*%
%FSLAX46Y46*%
G04 Gerber Fmt 4.6, Leading zero omitted, Abs format (unit mm)*
G04 Created by KiCad (PCBNEW (5.1.0)-1) date 2021-02-23 00:40:23*
%MOMM*%
%LPD*%
G04 APERTURE LIST*
%ADD10C,0.200000*%
%ADD11C,4.200000*%
G04 APERTURE END LIST*
D10*
X140214285Y-64602380D02*
X139738095Y-64602380D01*
X139738095Y-63602380D01*
X140976190Y-63935714D02*
X140976190Y-64602380D01*
X140547619Y-63935714D02*
X140547619Y-64459523D01*
X140595238Y-64554761D01*
X140690476Y-64602380D01*
X140833333Y-64602380D01*
X140928571Y-64554761D01*
X140976190Y-64507142D01*
X141452380Y-63935714D02*
X141452380Y-64602380D01*
X141452380Y-64030952D02*
X141500000Y-63983333D01*
X141595238Y-63935714D01*
X141738095Y-63935714D01*
X141833333Y-63983333D01*
X141880952Y-64078571D01*
X141880952Y-64602380D01*
X142785714Y-64554761D02*
X142690476Y-64602380D01*
X142500000Y-64602380D01*
X142404761Y-64554761D01*
X142357142Y-64507142D01*
X142309523Y-64411904D01*
X142309523Y-64126190D01*
X142357142Y-64030952D01*
X142404761Y-63983333D01*
X142500000Y-63935714D01*
X142690476Y-63935714D01*
X142785714Y-63983333D01*
X143214285Y-64602380D02*
X143214285Y-63602380D01*
X143642857Y-64602380D02*
X143642857Y-64078571D01*
X143595238Y-63983333D01*
X143500000Y-63935714D01*
X143357142Y-63935714D01*
X143261904Y-63983333D01*
X143214285Y-64030952D01*
X144452380Y-64078571D02*
X144595238Y-64126190D01*
X144642857Y-64173809D01*
X144690476Y-64269047D01*
X144690476Y-64411904D01*
X144642857Y-64507142D01*
X144595238Y-64554761D01*
X144500000Y-64602380D01*
X144119047Y-64602380D01*
X144119047Y-63602380D01*
X144452380Y-63602380D01*
X144547619Y-63650000D01*
X144595238Y-63697619D01*
X144642857Y-63792857D01*
X144642857Y-63888095D01*
X144595238Y-63983333D01*
X144547619Y-64030952D01*
X144452380Y-64078571D01*
X144119047Y-64078571D01*
X145261904Y-64602380D02*
X145166666Y-64554761D01*
X145119047Y-64507142D01*
X145071428Y-64411904D01*
X145071428Y-64126190D01*
X145119047Y-64030952D01*
X145166666Y-63983333D01*
X145261904Y-63935714D01*
X145404761Y-63935714D01*
X145500000Y-63983333D01*
X145547619Y-64030952D01*
X145595238Y-64126190D01*
X145595238Y-64411904D01*
X145547619Y-64507142D01*
X145500000Y-64554761D01*
X145404761Y-64602380D01*
X145261904Y-64602380D01*
X145928571Y-64602380D02*
X146452380Y-63935714D01*
X145928571Y-63935714D02*
X146452380Y-64602380D01*
X147500000Y-63935714D02*
X147738095Y-64602380D01*
X147976190Y-63935714D01*
X148261904Y-63602380D02*
X148880952Y-63602380D01*
X148547619Y-63983333D01*
X148690476Y-63983333D01*
X148785714Y-64030952D01*
X148833333Y-64078571D01*
X148880952Y-64173809D01*
X148880952Y-64411904D01*
X148833333Y-64507142D01*
X148785714Y-64554761D01*
X148690476Y-64602380D01*
X148404761Y-64602380D01*
X148309523Y-64554761D01*
X148261904Y-64507142D01*
X149309523Y-64507142D02*
X149357142Y-64554761D01*
X149309523Y-64602380D01*
X149261904Y-64554761D01*
X149309523Y-64507142D01*
X149309523Y-64602380D01*
X149976190Y-63602380D02*
X150071428Y-63602380D01*
X150166666Y-63650000D01*
X150214285Y-63697619D01*
X150261904Y-63792857D01*
X150309523Y-63983333D01*
X150309523Y-64221428D01*
X150261904Y-64411904D01*
X150214285Y-64507142D01*
X150166666Y-64554761D01*
X150071428Y-64602380D01*
X149976190Y-64602380D01*
X149880952Y-64554761D01*
X149833333Y-64507142D01*
X149785714Y-64411904D01*
X149738095Y-64221428D01*
X149738095Y-63983333D01*
X149785714Y-63792857D01*
X149833333Y-63697619D01*
X149880952Y-63650000D01*
X149976190Y-63602380D01*
X137095238Y-66302380D02*
X137095238Y-65302380D01*
X137476190Y-65302380D01*
X137571428Y-65350000D01*
X137619047Y-65397619D01*
X137666666Y-65492857D01*
X137666666Y-65635714D01*
X137619047Y-65730952D01*
X137571428Y-65778571D01*
X137476190Y-65826190D01*
X137095238Y-65826190D01*
X138666666Y-66207142D02*
X138619047Y-66254761D01*
X138476190Y-66302380D01*
X138380952Y-66302380D01*
X138238095Y-66254761D01*
X138142857Y-66159523D01*
X138095238Y-66064285D01*
X138047619Y-65873809D01*
X138047619Y-65730952D01*
X138095238Y-65540476D01*
X138142857Y-65445238D01*
X138238095Y-65350000D01*
X138380952Y-65302380D01*
X138476190Y-65302380D01*
X138619047Y-65350000D01*
X138666666Y-65397619D01*
X139428571Y-65778571D02*
X139571428Y-65826190D01*
X139619047Y-65873809D01*
X139666666Y-65969047D01*
X139666666Y-66111904D01*
X139619047Y-66207142D01*
X139571428Y-66254761D01*
X139476190Y-66302380D01*
X139095238Y-66302380D01*
X139095238Y-65302380D01*
X139428571Y-65302380D01*
X139523809Y-65350000D01*
X139571428Y-65397619D01*
X139619047Y-65492857D01*
X139619047Y-65588095D01*
X139571428Y-65683333D01*
X139523809Y-65730952D01*
X139428571Y-65778571D01*
X139095238Y-65778571D01*
X140857142Y-66302380D02*
X140857142Y-65302380D01*
X141095238Y-65302380D01*
X141238095Y-65350000D01*
X141333333Y-65445238D01*
X141380952Y-65540476D01*
X141428571Y-65730952D01*
X141428571Y-65873809D01*
X141380952Y-66064285D01*
X141333333Y-66159523D01*
X141238095Y-66254761D01*
X141095238Y-66302380D01*
X140857142Y-66302380D01*
X142238095Y-66254761D02*
X142142857Y-66302380D01*
X141952380Y-66302380D01*
X141857142Y-66254761D01*
X141809523Y-66159523D01*
X141809523Y-65778571D01*
X141857142Y-65683333D01*
X141952380Y-65635714D01*
X142142857Y-65635714D01*
X142238095Y-65683333D01*
X142285714Y-65778571D01*
X142285714Y-65873809D01*
X141809523Y-65969047D01*
X142666666Y-66254761D02*
X142761904Y-66302380D01*
X142952380Y-66302380D01*
X143047619Y-66254761D01*
X143095238Y-66159523D01*
X143095238Y-66111904D01*
X143047619Y-66016666D01*
X142952380Y-65969047D01*
X142809523Y-65969047D01*
X142714285Y-65921428D01*
X142666666Y-65826190D01*
X142666666Y-65778571D01*
X142714285Y-65683333D01*
X142809523Y-65635714D01*
X142952380Y-65635714D01*
X143047619Y-65683333D01*
X143523809Y-66302380D02*
X143523809Y-65635714D01*
X143523809Y-65302380D02*
X143476190Y-65350000D01*
X143523809Y-65397619D01*
X143571428Y-65350000D01*
X143523809Y-65302380D01*
X143523809Y-65397619D01*
X144428571Y-65635714D02*
X144428571Y-66445238D01*
X144380952Y-66540476D01*
X144333333Y-66588095D01*
X144238095Y-66635714D01*
X144095238Y-66635714D01*
X144000000Y-66588095D01*
X144428571Y-66254761D02*
X144333333Y-66302380D01*
X144142857Y-66302380D01*
X144047619Y-66254761D01*
X144000000Y-66207142D01*
X143952380Y-66111904D01*
X143952380Y-65826190D01*
X144000000Y-65730952D01*
X144047619Y-65683333D01*
X144142857Y-65635714D01*
X144333333Y-65635714D01*
X144428571Y-65683333D01*
X144904761Y-65635714D02*
X144904761Y-66302380D01*
X144904761Y-65730952D02*
X144952380Y-65683333D01*
X145047619Y-65635714D01*
X145190476Y-65635714D01*
X145285714Y-65683333D01*
X145333333Y-65778571D01*
X145333333Y-66302380D01*
X146190476Y-66254761D02*
X146095238Y-66302380D01*
X145904761Y-66302380D01*
X145809523Y-66254761D01*
X145761904Y-66159523D01*
X145761904Y-65778571D01*
X145809523Y-65683333D01*
X145904761Y-65635714D01*
X146095238Y-65635714D01*
X146190476Y-65683333D01*
X146238095Y-65778571D01*
X146238095Y-65873809D01*
X145761904Y-65969047D01*
X147095238Y-66302380D02*
X147095238Y-65302380D01*
X147095238Y-66254761D02*
X147000000Y-66302380D01*
X146809523Y-66302380D01*
X146714285Y-66254761D01*
X146666666Y-66207142D01*
X146619047Y-66111904D01*
X146619047Y-65826190D01*
X146666666Y-65730952D01*
X146714285Y-65683333D01*
X146809523Y-65635714D01*
X147000000Y-65635714D01*
X147095238Y-65683333D01*
X148333333Y-66302380D02*
X148333333Y-65302380D01*
X148333333Y-65683333D02*
X148428571Y-65635714D01*
X148619047Y-65635714D01*
X148714285Y-65683333D01*
X148761904Y-65730952D01*
X148809523Y-65826190D01*
X148809523Y-66111904D01*
X148761904Y-66207142D01*
X148714285Y-66254761D01*
X148619047Y-66302380D01*
X148428571Y-66302380D01*
X148333333Y-66254761D01*
X149142857Y-65635714D02*
X149380952Y-66302380D01*
X149619047Y-65635714D02*
X149380952Y-66302380D01*
X149285714Y-66540476D01*
X149238095Y-66588095D01*
X149142857Y-66635714D01*
X150904761Y-66302380D02*
X150809523Y-66254761D01*
X150761904Y-66159523D01*
X150761904Y-65302380D01*
X151285714Y-66302380D02*
X151285714Y-65635714D01*
X151285714Y-65302380D02*
X151238095Y-65350000D01*
X151285714Y-65397619D01*
X151333333Y-65350000D01*
X151285714Y-65302380D01*
X151285714Y-65397619D01*
X151666666Y-66302380D02*
X152190476Y-65635714D01*
X151666666Y-65635714D02*
X152190476Y-66302380D01*
X152523809Y-66254761D02*
X152619047Y-66302380D01*
X152809523Y-66302380D01*
X152904761Y-66254761D01*
X152952380Y-66159523D01*
X152952380Y-66111904D01*
X152904761Y-66016666D01*
X152809523Y-65969047D01*
X152666666Y-65969047D01*
X152571428Y-65921428D01*
X152523809Y-65826190D01*
X152523809Y-65778571D01*
X152571428Y-65683333D01*
X152666666Y-65635714D01*
X152809523Y-65635714D01*
X152904761Y-65683333D01*
D11*
%TO.C,H1*%
X97750000Y-132780000D03*
%TD*%
%TO.C,H1*%
X134000000Y-116000000D03*
%TD*%
%TO.C,H1*%
X157000000Y-66000000D03*
%TD*%
%TO.C,H1*%
X102000000Y-63500000D03*
%TD*%
%TO.C,H1*%
X193400000Y-125880000D03*
%TD*%
M02*
